<?xml version="1.0" standalone="no"?>
<!DOCTYPE svg PUBLIC "-//W3C//DTD SVG 1.1//EN" "http://www.w3.org/Graphics/SVG/1.1/DTD/svg11.dtd" >
<svg xmlns="http://www.w3.org/2000/svg" xmlns:xlink="http://www.w3.org/1999/xlink" version="1.1" viewBox="0 0 256 256">
  <g transform="matrix(1 0 0 -1 0 204)">
   <path fill="currentColor"
d="M88 135q4 7 8 4q4 -2 10 -2q3 -1 3 -3t-3 -2q-15 0 -28 -20q0 -6 -1 -14q-8 -20 -4 -85q-2 -5 12 -19q3 -4 -1 -6q-5 1 -12 12q-3 5 -9 10q-2 6 4 9q2 1 2 5q-1 31 -1 50q1 18 3 32q-27 -41 -41 -48q-6 -3 -1 2q17 15 46 62q-52 -21 -66 -12q-4 1 1 2q26 -1 69 16
q7 3 9 7zM164 188q3 -3 8 -6q3 -4 2 -7q-6 -6 -11 -47q3 0 10 2q16 3 24 6h2q5 1 6 3q1 3 9 2q1 -1 4 -2q8 -2 12 -2q5 -2 2 -6q-7 -1 -16 4q-6 1 -14 0q-4 -1 -7 -2q-13 -3 -33 -8q-21 -67 -61 -98q-8 -5 -1 1q36 34 55 95q-6 -2 -15 -4l-15 -3q-10 -5 -21 1q-3 1 0 1
q23 2 52 9q1 7 2 13q3 18 4 29q1 13 -1 18q-1 1 0 2q1 0 3 -1zM184 58q7 3 14 -1q6 -4 12 -6q3 -2 3 -4q-1 -3 -5 -3q-7 0 -11 -8t-8 -14q16 0 19 -3q4 -5 -2 -7q-5 -2 -15 1q-6 2 -27 -3q-6 -2 -6 7q0 5 4 4q3 -2 7 -2q13 8 19 27q0 8 -5 6q-26 -9 -35 -7q-4 0 0 2
q10 3 24 7q8 1 12 4zM69 182q-4 4 2 2q19 -8 27 -17q1 -6 -5 -8q-13 2 -24 23zM160 9q3 -4 0 -8q-2 -1 -4 -1q-2 2 -15 12q-7 4 -3 9q1 2 0 5q-2 6 -2 14q0 3 2 0q7 -26 22 -31zM81 89q-2 2 2 1q12 -3 21 -10q2 -4 -2 -5q-8 -1 -21 14z" />
  </g>

</svg>
