<?xml version="1.0" standalone="no"?>
<!DOCTYPE svg PUBLIC "-//W3C//DTD SVG 1.1//EN" "http://www.w3.org/Graphics/SVG/1.1/DTD/svg11.dtd" >
<svg xmlns="http://www.w3.org/2000/svg" xmlns:xlink="http://www.w3.org/1999/xlink" version="1.1" viewBox="0 0 256 256">
  <g transform="matrix(1 0 0 -1 0 204)">
   <path fill="currentColor"
d="M118 212q16 -15 11 -35q26 5 30 6q8 0 11 6q2 5 15 -5q1 -3 0 -5q-2 -2 -4 0q-5 1 -10 -1q-25 -12 -47 -17q-4 -6 -8 -8q5 -3 8 -5q2 -1 5 -2q44 7 62 1q9 -1 14 -11q1 -3 -1 -4q-1 -1 -4 0q-7 3 -15 0q-5 -2 -16 -4q-25 -7 -38 -9q-6 -1 -1 2q49 14 58 20q1 0 1 2
q-1 2 -3 3q-17 5 -55 -3q3 -13 -5 -13q-7 -3 -12 9q-4 -2 -11 -4q-11 -3 -17 -5q-8 -3 -13 -3q-3 0 -1 2q29 10 41 13q-1 5 -13 9q-3 0 -3 1t3 2h11q-2 6 1 13q-19 -7 -32 -18q-2 -3 -3 -3q-2 1 -2 4q-5 14 2 13q3 -1 11 15q1 1 2 1q1 -1 1 -2q-5 -17 2 -11q2 0 4 1
q14 5 18 6q7 8 8 22q-1 6 -8 16q-2 2 -1 2q1 1 4 -1zM128 172q-2 -5 -3 -8q20 7 35 14q2 1 2 2t-2 1q-3 -1 -8 -2q-14 -4 -24 -7zM54 115q2 2 4 -1q0 -6 4 -12q3 -7 -3 -7q-10 4 -5 20zM150 114l10 -2q1 -1 1 -3q0 -1 -1 -1q-8 0 -17 -4q-50 -18 -60 -12q-4 1 1 2
q15 0 49 12q5 3 9 5q1 3 8 3zM173 88q19 -4 25 -9q1 -2 1 -3t-2 0q-5 -1 -8 1q-9 5 -19 4q-15 -2 -37 -7q-5 -4 -4 -13v-13q2 -41 2 -75q-5 -6 -6 -3q-9 23 -13 36q-2 3 2 1q1 -4 5 -8q3 -5 5 -8q1 -2 3 -1q1 1 2 3q0 66 -9 78q-17 -5 -36 -11q-15 -4 -25 -2q-5 1 0 2
q16 2 44 9l15 5q-2 3 3 5q5 1 12 -2q16 3 29 5q5 7 11 6zM169 44q20 -14 27 -27q1 -5 -3 -5q-7 0 -8 5q-6 11 -18 25q-3 4 2 2zM81 36q2 2 2 -2q-2 -4 0 -8q1 -5 1 -20q-3 -5 -6 -2q-7 9 -4 15q3 3 3 7q1 5 4 10z" />
  </g>

</svg>
