<?xml version="1.0" standalone="no"?>
<!DOCTYPE svg PUBLIC "-//W3C//DTD SVG 1.1//EN" "http://www.w3.org/Graphics/SVG/1.1/DTD/svg11.dtd" >
<svg xmlns="http://www.w3.org/2000/svg" xmlns:xlink="http://www.w3.org/1999/xlink" version="1.1" viewBox="0 0 256 256">
  <g transform="matrix(1 0 0 -1 0 204)">
   <path fill="currentColor"
d="M120 55q-4 -2 -8 -6q5 -1 32 7q0 9 -4 16l-4 -2q-8 -3 -17 -1q-2 0 0 2q13 2 19 8q-5 2 -6 6q-2 0 -2 6q0 5 7 13l2 2q2 3 -1 2q-16 -8 -25 -6q-2 1 1 2q32 10 46 17q1 4 6 5q3 1 5 -1q1 -2 5 -3q3 -1 6 -1q2 -1 2 -2q1 -1 0 -2q0 -5 -6 -1q-15 4 -34 -9q-7 -4 -9 -10
q-1 -4 -1 -5q1 -1 3 2q0 1 1 1t2 -1q-1 -2 0 -4t1 -3v-2q1 -1 1 -3q16 19 15 30q0 1 2 1l8 -6q3 -3 0 -5t-7 -6l-3 -3q-7 -10 -13 -15q1 0 7 2q5 2 7 3q-1 1 2 2h7q4 1 6 0q2 0 2 -2q0 -3 -3 -2q-18 -4 -30 -9q9 -6 8 -15q12 3 19 3q4 0 8 3q3 4 6 3q11 -6 17 -11
q-7 68 -7 127q-2 13 -17 16q-12 -1 -36 -10q-5 -1 -1 2q20 11 34 11q12 1 38 -21q7 -8 -2 -12q-8 1 -9 -20q-3 -85 21 -170q1 -6 -2 -8q-5 -2 -9 2q-11 13 -21 18q-17 10 -18 11q-4 4 2 2q3 -2 30 -11q3 -2 5 0q1 2 0 8q-3 7 -7 36q-1 9 -1 15h-1q-2 -2 -3 -2v1q-5 1 -9 4
q-3 3 -11 2q-6 -1 -13 -1q-8 -1 -13 -2q-2 -9 -4 -48q-1 -5 9 -21q1 -2 -1 -5q-3 -2 -4 0q-6 8 -11 20q-1 1 0 3q1 1 4 0q1 17 1 50q-13 -4 -22 -7q-6 -2 -12 1q-3 -3 -4 -6q3 0 5 -1q1 -2 -1 -4q-14 -6 -15 -6q-5 -2 -7 -3q0 -5 -2 -3q-7 -1 -6 3q-1 6 -3 14q-2 6 0 10
q0 7 2 2q1 0 2 1q10 6 17 7q5 2 8 7q1 3 5 0t9 -7q2 -2 2 -3q0 -2 -2 -2zM48 140q-2 5 2 1q8 -14 6 -21q-3 -16 -4 -45t0 -59q-1 -3 1 -6q20 30 21 85q0 2 2 1q7 -7 5 -8l-2 -6q7 3 17 8q3 4 8 15q2 5 4 9q1 2 0 3q0 1 -2 1q-9 -3 -19 -8q-7 -4 -16 2q-2 0 -2 1q1 1 3 2
q5 -1 12 0q6 1 19 6q4 1 5 6q1 2 5 0q1 -2 4 -4q3 -3 6 -5q3 -4 -1 -5q-7 -1 -18 -19q4 -2 7 -3q1 -1 0 -3q0 -1 -2 -1l-6 -2q-14 -4 -24 -9q-5 -44 -25 -68q1 -7 16 -16q3 -3 2 -5q0 -2 -3 -3q-8 -3 -27 22q-4 8 2 13q4 0 4 8v41q1 25 2 41v21q0 5 -2 10zM81 175q1 3 8 1
q7 -3 11 -6q1 -3 -2 -6q-5 -3 -4 -6q-2 -11 -5 -23q2 1 5 4q10 8 17 12q4 3 1 0q-27 -32 -44 -30q-3 -1 -4 0q0 1 3 3q1 0 4 1q7 2 10 5q0 1 1 7q1 7 2 8q-1 -1 -3 -2q-5 -3 -9 -3q-2 -1 -3 0q0 1 2 3q7 7 14 11q1 4 2 11q0 2 -1 3h-1q-19 -8 -40 -12q-3 0 -3 1q0 2 3 3
q1 0 8 2q11 3 23 8q1 0 3 2q1 2 2 3zM142 179q2 -10 3 -12q3 1 8 6q6 4 17 5q2 -1 2 -2q1 -2 0 -2q-4 -2 -8 -6q-2 -1 -3 -2q-4 -4 -7 -4q-5 -4 -2 2q1 3 -7 0q-1 -6 0 -10q1 -5 3 -9q6 0 12 4q5 4 22 3q2 -1 1 -3q-1 -3 -4 -3q-7 -1 -24 -5q2 0 -5 -1q0 -1 1 -4q0 -2 1 -3
q-2 -3 -6 -3q2 -1 5 -5q1 -2 0 -4q-2 -2 -5 -1q-3 3 -10 3h-3q0 1 3 3q1 0 -1 3t-5 7q-1 1 0 2q3 -4 14 -6v-1q-1 3 -2 7q-5 1 -5 2t4 3q-5 9 -1 36q0 5 2 0zM106 59q-5 -1 -13 -5q-1 0 -3 -1q-7 -3 -11 -3q2 -13 7 -20q16 5 22 24q1 2 0 3q0 1 -2 2z" />
  </g>

</svg>
