<?xml version="1.0" encoding="UTF-8" standalone="no"?>
<!-- Created with Inkscape (http://www.inkscape.org/) -->

<svg
   xmlns:dc="http://purl.org/dc/elements/1.1/"
   xmlns:cc="http://creativecommons.org/ns#"
   xmlns:rdf="http://www.w3.org/1999/02/22-rdf-syntax-ns#"
   xmlns:svg="http://www.w3.org/2000/svg"
   xmlns="http://www.w3.org/2000/svg"
   xmlns:sodipodi="http://sodipodi.sourceforge.net/DTD/sodipodi-0.dtd"
   xmlns:inkscape="http://www.inkscape.org/namespaces/inkscape"
   version="1.1"
   id="svg2"
   width="540"
   height="540"
   viewBox="0 0 540 540"
   sodipodi:docname="U+76DB.svg"
   inkscape:version="0.92.4 (5da689c313, 2019-01-14)">
  <metadata
     id="metadata8">
    <rdf:RDF>
      <cc:Work
         rdf:about="">
        <dc:format>image/svg+xml</dc:format>
        <dc:type
           rdf:resource="http://purl.org/dc/dcmitype/StillImage" />
        <dc:title></dc:title>
      </cc:Work>
    </rdf:RDF>
  </metadata>
  <defs
     id="defs6" />
  <sodipodi:namedview
     pagecolor="#ffffff"
     bordercolor="#666666"
     borderopacity="1"
     objecttolerance="10"
     gridtolerance="10"
     guidetolerance="10"
     inkscape:pageopacity="0"
     inkscape:pageshadow="2"
     inkscape:window-width="1920"
     inkscape:window-height="1001"
     id="namedview4"
     showgrid="false"
     inkscape:zoom="1.2361274"
     inkscape:cx="250.22457"
     inkscape:cy="259.88982"
     inkscape:window-x="-9"
     inkscape:window-y="-9"
     inkscape:window-maximized="1"
     inkscape:current-layer="svg2" />
  <path
     style="fill:#000000;stroke:none;stroke-width:1px;stroke-linecap:butt;stroke-linejoin:miter;stroke-opacity:1"
     d="m 103.5492,175.95986 c 0,0 -35.59504,-24.26935 -41.257886,-39.63993 -5.662847,-15.37058 -21.033431,8.08978 1.617956,28.31423 22.651386,20.22446 45.30277,83.32475 29.123211,133.48139 -16.179562,50.15664 -38.830948,80.89781 -75.234963,72.80803 -36.404014,-8.08978 11.325694,38.02197 30.741168,29.93219 19.415474,-8.08978 43.684817,-38.02197 48.538686,-61.48234 4.853868,-23.46036 25.887298,-93.84146 18.606498,-106.78511 -7.2808,-12.94365 0,-55.81949 -12.13467,-56.62846 z"
     id="path14"
     inkscape:connector-curvature="0" />
  <path
     style="fill:#000000;stroke:none;stroke-width:1px;stroke-linecap:butt;stroke-linejoin:miter;stroke-opacity:1"
     d="m 131.05445,362.02482 c 0,0 -5.66284,-22.65139 -29.93219,-34.78606 -24.269341,-12.13467 12.94365,19.41547 10.51672,28.31423 -2.42694,8.89876 11.32569,48.53869 11.32569,48.53869 0,0 10.51672,9.70774 -12.13467,19.41547 -22.651387,9.70774 -118.919781,29.93219 -100.313285,42.06687 18.606497,12.13467 46.111752,24.26934 45.302774,11.32569 -0.808978,-12.94365 65.527221,-39.63993 79.279851,-39.63993 13.75263,0 87.36964,-21.84241 104.35818,-17.79752 16.98854,4.04489 18.60649,-0.80897 46.92073,13.75263 28.31423,14.56161 26.69627,-12.13467 9.70773,-19.41547 -16.98854,-7.28081 -35.59503,-21.84241 -71.99905,-10.51672 -36.40401,11.32569 -84.13372,25.07832 -83.32474,7.2808 0.80898,-17.79751 -17.79752,-45.30277 -9.70774,-48.53868 z"
     id="path16"
     inkscape:connector-curvature="0" />
  <path
     style="fill:#000000;stroke:none;stroke-width:1px;stroke-linecap:butt;stroke-linejoin:miter;stroke-opacity:1"
     d="m 156.94175,161.39825 c 0,0 -25.8873,-25.8873 -14.5616,16.17956 11.32569,42.06686 40.4489,10.51672 40.4489,10.51672 0,0 63.90927,-33.97708 79.27985,-33.97708 15.37059,0 67.95416,-12.13467 52.58358,-19.41548 -15.37058,-7.2808 -30.74117,-13.75262 -46.92073,-3.23591 -16.17956,10.51672 -108.40306,36.40402 -110.83,29.93219 z"
     id="path18"
     inkscape:connector-curvature="0" />
  <path
     style="fill:#000000;stroke:none;stroke-width:1px;stroke-linecap:butt;stroke-linejoin:miter;stroke-opacity:1"
     d="m 268.58073,48.950295 c 0,0 -32.35913,0.808978 13.75263,22.651386 46.11175,21.842409 58.24642,48.538689 64.71824,30.741169 6.47183,-17.797519 -53.39255,-59.055402 -78.47087,-53.392555 z"
     id="path20"
     inkscape:connector-curvature="0" />
  <path
     style="fill:#000000;stroke:none;stroke-width:1px;stroke-linecap:butt;stroke-linejoin:miter;stroke-opacity:1"
     d="m 188.4919,71.601681 c 0,0 -38.83095,-11.325693 -16.17957,-30.741167 22.65139,-19.415475 38.83095,-4.853869 36.40402,12.134671 -2.42694,16.98854 64.71825,110.829995 63.10029,135.908325 -1.61796,25.07832 76.04394,145.61605 76.04394,145.61605 0,0 102.74022,121.34672 103.5492,108.40307 0.80898,-12.94365 -2.42694,-43.68482 7.2808,-26.69628 9.70774,16.98854 55.01051,68.76314 54.20153,80.08883 -0.80897,11.3257 -4.04489,13.75263 -43.68481,-4.04489 C 429.56737,474.47277 306.6027,292.4527 306.6027,292.4527 c 0,0 -68.76314,-131.86343 -67.14518,-138.33525 1.61795,-6.47183 -44.4938,-88.987593 -50.96562,-82.515769 z"
     id="path22"
     inkscape:connector-curvature="0" />
  <path
     style="fill:#000000;stroke:none;stroke-width:1px;stroke-linecap:butt;stroke-linejoin:miter;stroke-opacity:1"
     d="m 345.43365,170.29701 c 0,0 -4.04489,103.5492 -29.93219,148.04299 -25.8873,44.4938 -47.72971,74.42599 -9.70774,38.83095 38.02197,-35.59504 50.96562,-67.14518 50.15664,-91.41453 -0.80898,-24.26934 17.79752,-46.11175 -10.51671,-95.45941 z"
     id="path24"
     inkscape:connector-curvature="0" />
  <path
     style="fill:#000000;stroke:none;stroke-width:1px;stroke-linecap:butt;stroke-linejoin:miter;stroke-opacity:1"
     d="m 161.79562,264.94745 c 0,0 46.11175,-25.07832 29.93219,4.04489 -16.17956,29.12321 -52.58358,32.35912 -45.30277,50.15664 7.2808,17.79752 27.50525,15.37058 37.21299,0 9.70774,-15.37058 62.29131,-79.27985 56.62847,-85.75168 -5.66285,-6.47182 -2.42694,-13.75263 10.51671,-9.70774 12.94365,4.04489 2.42693,-19.41547 -21.84241,-23.46036 -24.26934,-4.04489 -23.46036,21.84241 -23.46036,21.84241 0,0 -59.0554,28.31423 -63.10029,19.41547 -4.0449,-8.89876 -14.56161,4.85387 -5.66285,18.6065 8.89876,13.75263 28.31423,17.79752 25.07832,4.85387 z"
     id="path26"
     inkscape:connector-curvature="0" />
  <path
     style="fill:#000000;stroke:none;stroke-width:1px;stroke-linecap:butt;stroke-linejoin:miter;stroke-opacity:1"
     d="m 184.44701,324.81183 c 0,0 -71.19008,48.53868 -6.47183,25.07832 64.71825,-23.46037 95.45942,-33.1681 88.17861,-14.56161 -7.2808,18.6065 -21.8424,66.33621 -21.8424,66.33621 0,0 13.75262,19.41547 22.65138,0.80897 8.89876,-18.60649 50.15664,-71.19007 39.63993,-89.79657 -10.51672,-18.60649 -13.75263,-32.35912 -45.30277,-12.13467 -31.55015,20.22446 -76.85292,24.26935 -76.85292,24.26935 z"
     id="path28"
     inkscape:connector-curvature="0" />
  <path
     style="fill:#000000;stroke:none;stroke-width:1px;stroke-linecap:butt;stroke-linejoin:miter;stroke-opacity:1"
     d="m 217.61511,357.17095 c 0,0 -21.03343,-21.84241 -15.37059,4.85387 5.66285,26.69628 2.42694,24.26934 2.42694,24.26934 0,0 22.65139,-6.47182 25.8873,-0.80898 3.23591,5.66285 8.08978,-23.46036 -12.94365,-28.31423 z"
     id="path30"
     inkscape:connector-curvature="0" />
  <path
     style="fill:#000000;stroke:none;stroke-width:1px;stroke-linecap:butt;stroke-linejoin:miter;stroke-opacity:1"
     d="m 171.50336,352.31708 c 0,0 25.8873,11.32569 7.2808,30.74117 -18.6065,19.41547 -34.78606,-42.06686 -22.65139,-38.83095 12.13467,3.23591 15.37059,8.08978 15.37059,8.08978 z"
     id="path32"
     inkscape:connector-curvature="0" />
</svg>
