<?xml version="1.0" encoding="UTF-8" standalone="no"?>
<!-- Created with Inkscape (http://www.inkscape.org/) -->

<svg
   xmlns:dc="http://purl.org/dc/elements/1.1/"
   xmlns:cc="http://creativecommons.org/ns#"
   xmlns:rdf="http://www.w3.org/1999/02/22-rdf-syntax-ns#"
   xmlns:svg="http://www.w3.org/2000/svg"
   xmlns="http://www.w3.org/2000/svg"
   xmlns:sodipodi="http://sodipodi.sourceforge.net/DTD/sodipodi-0.dtd"
   xmlns:inkscape="http://www.inkscape.org/namespaces/inkscape"
   version="1.1"
   id="svg2"
   width="512"
   height="512"
   viewBox="0 0 512 512"
   sodipodi:docname="U+81E8.svg"
   inkscape:version="0.92.4 (5da689c313, 2019-01-14)">
  <metadata
     id="metadata8">
    <rdf:RDF>
      <cc:Work
         rdf:about="">
        <dc:format>image/svg+xml</dc:format>
        <dc:type
           rdf:resource="http://purl.org/dc/dcmitype/StillImage" />
        <dc:title></dc:title>
      </cc:Work>
    </rdf:RDF>
  </metadata>
  <defs
     id="defs6" />
  <sodipodi:namedview
     pagecolor="#ffffff"
     bordercolor="#666666"
     borderopacity="1"
     objecttolerance="10"
     gridtolerance="10"
     guidetolerance="10"
     inkscape:pageopacity="0"
     inkscape:pageshadow="2"
     inkscape:window-width="1920"
     inkscape:window-height="1001"
     id="namedview4"
     showgrid="false"
     inkscape:zoom="1.3037281"
     inkscape:cx="287.17505"
     inkscape:cy="258.26302"
     inkscape:window-x="-9"
     inkscape:window-y="-9"
     inkscape:window-maximized="1"
     inkscape:current-layer="svg2" />
  <path
     style="fill:#000000;stroke:none;stroke-width:1px;stroke-linecap:butt;stroke-linejoin:miter;stroke-opacity:1"
     d="m 107.38435,156.86461 c 0,0 28.38015,-41.41968 -2.30109,-33.74937 -30.681245,7.67031 -19.175778,8.43734 -20.709841,23.01093 -1.534062,14.57359 -7.67031,59.0614 -5.369217,76.70311 2.301093,17.64172 0,153.40622 4.602186,165.67872 4.602187,12.27249 28.380152,62.89654 32.215302,51.39108 3.83516,-11.50547 -1.53406,-35.28343 -16.107649,-57.52733 -14.573591,-22.2439 -4.602186,-52.92515 -4.602186,-52.92515 0,0 -13.80656,-59.06139 -9.204373,-88.9756 4.602186,-29.91422 21.476868,-83.60639 21.476868,-83.60639 z"
     id="path817"
     inkscape:connector-curvature="0" />
  <path
     style="fill:#000000;stroke:none;stroke-width:1px;stroke-linecap:butt;stroke-linejoin:miter;stroke-opacity:1"
     d="m 136.53153,125.41633 c 0,0 -16.87468,-1.53406 -1.53406,19.17578 15.34062,20.70984 64.43061,-36.81749 64.43061,-36.81749 l 27.61312,-6.13625 c 0,0 -3.06812,-18.408747 -23.01093,-12.272498 -19.94281,6.136249 -52.15812,46.788898 -67.49874,36.050458 z"
     id="path819"
     inkscape:connector-curvature="0" />
  <path
     style="fill:#000000;stroke:none;stroke-width:1px;stroke-linecap:butt;stroke-linejoin:miter;stroke-opacity:1"
     d="m 150.33809,149.1943 c 4.60219,6.90328 3.06813,40.65264 3.06813,40.65264 0,0 -39.11859,17.64172 -52.15812,15.34063 -13.039525,-2.3011 18.40875,23.77796 18.40875,23.77796 0,0 61.36249,-33.74937 80.53826,-39.11859 19.17578,-5.36921 -11.50546,39.88562 -11.50546,39.88562 0,0 -106.617324,45.25483 -101.248106,42.18671 5.369217,-3.06812 -2.301094,-0.76703 -2.301094,-0.76703 0,0 -4.602186,27.61312 9.971405,23.01093 14.573595,-4.60218 55.993265,-28.38014 76.703105,-31.44827 20.70984,-3.06813 61.36249,-4.60219 51.39109,-17.64172 -9.97141,-13.03953 -18.40875,3.06813 -3.83516,-17.64171 14.57359,-20.70984 33.74937,-40.65265 22.2439,-46.7889 -11.50546,-6.13625 -23.77796,-12.2725 -36.05046,-7.67031 -12.2725,4.60219 -35.28343,19.17578 -29.14718,8.43734 6.13625,-10.73843 6.90328,-32.98233 0.76703,-32.2153 -6.13625,0.76703 -21.47687,-9.97141 -26.84609,0 z"
     id="path821"
     inkscape:connector-curvature="0"
     sodipodi:nodetypes="ccscscscssssssssc" />
  <path
     style="fill:#000000;stroke:none;stroke-width:1px;stroke-linecap:butt;stroke-linejoin:miter;stroke-opacity:1"
     d="m 138.83263,276.52146 c 12.27249,38.35155 3.06812,39.88561 3.06812,39.88561 L 95.111855,329.4466 92.04373,363.963 c 0,0 46.1694,-52.71636 141.13372,-19.94281 22.83967,7.8823 22.98113,-7.98817 21.75979,-13.46886 -2.40666,-10.79961 -12.64825,-8.25368 -27.89604,-12.61019 -26.84609,-7.67031 -62.12952,-2.3011 -62.12952,-2.3011 0,0 13.80656,-30.68124 6.13625,-32.2153 -7.67031,-1.53407 -21.47687,-13.80656 -32.2153,-6.90328 z"
     id="path823"
     inkscape:connector-curvature="0"
     sodipodi:nodetypes="ccccsssccc" />
  <path
     style="fill:#000000;stroke:none;stroke-width:1px;stroke-linecap:butt;stroke-linejoin:miter;stroke-opacity:1"
     d="m 292.23884,70.190095 c 0,0 16.87469,21.47687 32.21531,32.215305 15.34062,10.73844 -64.43061,22.2439 -69.79983,4.60219 -5.36922,-17.641718 -9.9714,20.70984 -9.9714,20.70984 0,0 23.01093,22.2439 23.01093,24.54499 0,2.30109 16.10765,-22.2439 16.10765,-22.2439 0,0 131.92935,-46.021866 144.20185,-32.215306 12.27249,13.806556 -13.03953,11.505466 -13.03953,11.505466 h 59.06139 l 14.57359,-12.272497 -42.95374,-17.641715 -12.2725,7.670311 -78.23717,13.039531 -10.73843,2.30109 21.47687,-20.709839 -24.545,-14.57359 z"
     id="path825"
     inkscape:connector-curvature="0" />
  <path
     style="fill:#000000;stroke:none;stroke-width:1px;stroke-linecap:butt;stroke-linejoin:miter;stroke-opacity:1"
     d="m 316.01681,149.96133 48.32296,-18.40875 9.9714,-8.43734 32.21531,16.10765 3.06812,14.57359 -32.21531,39.11859 h 5.36922 c 0,0 -6.13625,-5.36922 3.06813,2.30109 9.20437,7.67031 -62.12952,35.28343 -62.12952,35.28343 l -6.90328,9.20437 -13.03953,-13.80655 c 0,0 -25.31203,-37.58453 -29.91421,-38.35156 -4.60219,-0.76703 4.60218,-21.47687 4.60218,-21.47687 0,0 38.35156,9.9714 39.11859,18.40875 0.76703,8.43734 0,18.40874 0,18.40874 l 0.76703,5.36922 32.21531,-15.34062 6.13624,-23.01093 -19.9428,6.13624 c 0,0 -9.20438,2.3011 -13.80656,-3.83515 -4.60219,-6.13625 -6.90328,-22.2439 -6.90328,-22.2439 z"
     id="path827"
     inkscape:connector-curvature="0" />
  <path
     style="fill:#000000;stroke:none;stroke-width:1px;stroke-linecap:butt;stroke-linejoin:miter;stroke-opacity:1"
     d="m 246.98401,283.42474 c 0,0 22.2439,-14.57359 27.61312,23.77796 5.36922,38.35155 6.90328,74.40202 14.57359,74.40202 7.67031,0 -3.83516,24.54499 -16.10765,9.20437 -12.2725,-15.34062 -13.80656,-18.40875 -14.57359,-36.81749 -0.76704,-18.40875 -3.83516,-46.02187 -16.10766,-53.69218 -12.27249,-7.67031 -26.84609,-16.87468 4.60219,-16.87468 z"
     id="path841"
     inkscape:connector-curvature="0" />
  <path
     style="fill:#000000;stroke:none;stroke-width:1px;stroke-linecap:butt;stroke-linejoin:miter;stroke-opacity:1"
     d="m 263.85869,309.50379 c 0,0 40.65265,-16.87468 38.35156,-2.30109 -2.3011,14.57359 -4.60219,29.91421 -19.17578,32.98234 -14.57359,3.06812 -16.10765,31.44827 9.9714,19.94281 26.07906,-11.50547 51.39109,-18.40875 47.55593,-30.68125 -3.83515,-12.2725 -19.17578,-6.90328 -19.17578,-6.90328 l 6.90328,-42.18671 c 0,0 18.40875,3.06813 5.36922,-9.9714 -13.03953,-13.03953 -23.01093,-17.64172 -37.58452,-5.36922 -14.57359,12.2725 -33.74937,26.84609 -33.74937,26.84609 z"
     id="path843"
     inkscape:connector-curvature="0" />
  <path
     style="fill:#000000;stroke:none;stroke-width:1px;stroke-linecap:butt;stroke-linejoin:miter;stroke-opacity:1"
     d="m 382.74851,261.18084 c 0,0 -52.92514,-39.88562 -39.11858,-13.03953 13.80656,26.84608 17.64171,64.43061 14.57359,71.33389 -3.06813,6.90328 17.64171,16.87468 22.2439,13.80656 4.60218,-3.06813 26.07906,-13.80656 51.39108,-3.83516 25.31203,9.97141 36.05046,24.545 42.95374,7.67031 6.90328,-16.87468 -23.01093,-32.98233 -38.35155,-32.2153 -15.34062,0.76703 -62.12952,12.27249 -56.7603,-6.13625 5.36921,-18.40875 3.06812,-37.58452 3.06812,-37.58452 z"
     id="path845"
     inkscape:connector-curvature="0" />
  <path
     style="fill:#000000;stroke:none;stroke-width:1px;stroke-linecap:butt;stroke-linejoin:miter;stroke-opacity:1"
     d="m 372.01008,272.6863 c 0,0 72.10092,-31.44827 62.89655,-9.20437 -9.20438,22.2439 -16.10766,34.5164 -16.10766,34.5164 0,0 5.36922,32.98233 17.64172,1.53406 12.27249,-31.44828 25.31202,-38.35155 39.11858,-42.95374 13.80656,-4.60219 0.76703,-45.25484 -25.31202,-34.5164 -26.07906,10.73843 -13.80656,16.10765 -42.18671,23.01093 -28.38015,6.90328 -43.72077,14.57359 -36.05046,27.61312 z"
     id="path847"
     inkscape:connector-curvature="0" />
</svg>
