<?xml version="1.0" encoding="UTF-8" standalone="no"?>
<!-- Created with Inkscape (http://www.inkscape.org/) -->

<svg
   xmlns:dc="http://purl.org/dc/elements/1.1/"
   xmlns:cc="http://creativecommons.org/ns#"
   xmlns:rdf="http://www.w3.org/1999/02/22-rdf-syntax-ns#"
   xmlns:svg="http://www.w3.org/2000/svg"
   xmlns="http://www.w3.org/2000/svg"
   xmlns:sodipodi="http://sodipodi.sourceforge.net/DTD/sodipodi-0.dtd"
   xmlns:inkscape="http://www.inkscape.org/namespaces/inkscape"
   version="1.1"
   id="svg2"
   width="530"
   height="530"
   viewBox="0 0 530 530"
   sodipodi:docname="U+8208.svg"
   inkscape:version="0.92.4 (5da689c313, 2019-01-14)">
  <metadata
     id="metadata8">
    <rdf:RDF>
      <cc:Work
         rdf:about="">
        <dc:format>image/svg+xml</dc:format>
        <dc:type
           rdf:resource="http://purl.org/dc/dcmitype/StillImage" />
        <dc:title></dc:title>
      </cc:Work>
    </rdf:RDF>
  </metadata>
  <defs
     id="defs6" />
  <sodipodi:namedview
     pagecolor="#ffffff"
     bordercolor="#666666"
     borderopacity="1"
     objecttolerance="10"
     gridtolerance="10"
     guidetolerance="10"
     inkscape:pageopacity="0"
     inkscape:pageshadow="2"
     inkscape:window-width="1920"
     inkscape:window-height="1001"
     id="namedview4"
     showgrid="false"
     inkscape:zoom="1.7811321"
     inkscape:cx="254.85319"
     inkscape:cy="282.09417"
     inkscape:window-x="-9"
     inkscape:window-y="-9"
     inkscape:window-maximized="1"
     inkscape:current-layer="svg2" />
  <path
     style="fill:#000000;stroke:none;stroke-width:1px;stroke-linecap:butt;stroke-linejoin:miter;stroke-opacity:1"
     d="m 116.77966,134.18432 c 0,0 -24.703389,-33.125 -16.28178,2.24576 8.42161,35.37077 30.87924,36.49365 33.125,46.59958 2.24576,10.10593 8.98305,56.70551 7.29873,65.68856 -1.68432,8.98305 0,20.77331 -4.49153,28.63347 -4.49152,7.86017 9.5445,3.36865 8.98306,17.40467 -0.56144,14.03601 16.84322,18.52754 -2.24577,21.89618 -19.08898,3.36865 -107.235167,31.44068 -119.025421,21.33475 -11.790254,-10.10593 -24.70338968,-10.66737 -22.457627,-2.24576 2.2457627,8.42161 16.28178,30.31779 20.211864,32.00211 3.930085,1.68433 21.896187,11.79026 28.072034,0.56144 6.175848,-11.22881 75.23305,-39.30084 124.63983,-44.35381 49.40678,-5.05297 16.84322,-10.10593 52.21398,-13.47458 35.37077,-3.36864 73.54873,-20.21186 83.65467,-9.54449 10.10593,10.66738 20.21186,11.79026 21.33474,-1.68432 1.12288,-13.47458 40.98517,-3.93008 40.98517,3.36865 0,7.29872 10.66737,19.65042 16.84322,1.68432 6.17585,-17.9661 107.23517,51.0911 113.41102,47.72245 6.17585,-3.36864 25.26483,-5.05296 16.84322,-19.08898 -8.42161,-14.03602 -33.125,-39.86229 -47.16102,-33.68644 -7.77245,3.41988 -34.31035,-3.98441 -55.30359,-8.14516 -16.91776,-3.35302 -30.2347,-2.43449 -27.22819,-8.69806 6.73729,-14.03602 14.03602,-122.39407 25.26483,-139.23729 11.22882,-16.84322 23.01907,-28.63347 16.84322,-37.05508 -6.17584,-8.421612 -16.28178,-35.932206 -16.28178,-35.932206 0,0 -10.66737,-8.42161 -15.72034,4.491526 -5.05296,12.913135 -5.6144,20.211864 -22.45762,21.896186 -16.84322,1.684322 -17.40466,4.491524 -19.65043,0 -2.24576,-4.491525 1.68432,21.896184 19.65043,32.002114 17.9661,10.10594 8.42161,33.68645 8.42161,33.68645 0,0 -1.68433,53.8983 -6.17585,70.18008 -4.49153,16.28178 -3.36864,50.52966 -12.91314,54.45975 -9.54449,3.93008 -37.61652,3.36864 -33.125,-6.73729 4.49153,-10.10593 -8.98305,-36.49365 3.93009,-35.93221 12.91313,0.56145 20.7733,-2.24576 20.7733,-7.29872 0,-5.05297 5.61441,-12.3517 -6.17584,-12.91314 -11.79026,-0.56144 -20.21187,11.79025 -17.96611,-5.05297 2.24577,-16.84322 -3.93008,-30.31779 6.17585,-31.44067 10.10593,-1.12289 23.01907,-3.36865 23.01907,-13.47458 0,-10.10593 -0.56144,-12.3517 -10.66737,-12.3517 -10.10594,0 -19.65043,16.84323 -15.1589,-7.86016 4.49152,-24.70339 6.17585,-44.35382 10.66737,-46.59958 4.49153,-2.24576 11.22881,-3.93009 0,-17.404662 -11.22881,-13.474576 -15.1589,-29.194915 -14.59746,-33.125 0.56144,-3.930085 -15.72034,-10.105932 -23.5805,-1.684322 -7.86017,8.42161 -21.33475,14.597458 -32.56356,15.158898 -11.22882,0.561441 -40.42373,11.790255 -53.89831,1.122882 -13.47458,-10.667373 -11.79025,15.720339 -4.49152,25.826271 7.29872,10.105933 13.47457,22.457623 26.94915,18.527543 13.47457,-3.93009 2.8072,-7.86017 24.70339,-16.843221 21.89618,-8.983051 46.59957,-19.650424 44.91525,0.561441 -1.68432,20.21186 -0.56144,83.65466 2.80721,98.25212 3.36864,14.59746 -6.73729,34.80932 -5.05297,43.23093 1.68432,8.42161 0,39.86229 -7.86017,37.61653 -7.86017,-2.24577 -7.29873,5.6144 -4.49153,11.22881 2.80721,5.61441 -72.42584,16.84322 -71.8644,9.54449 0.56144,-7.29873 -7.86017,-33.125 4.49152,-32.00212 12.3517,1.12288 39.86229,-17.9661 49.40678,-15.1589 9.54449,2.80721 23.58051,-3.93008 14.59746,-12.35169 -8.98305,-8.42161 -17.40466,5.05297 -11.22881,-12.3517 6.17584,-17.40466 17.9661,-28.63347 10.10593,-37.61652 -7.86017,-8.98305 -26.94915,-19.65042 -28.07203,-14.59746 -1.12289,5.05297 7.29872,62.88136 -12.91314,64.56568 -20.21187,1.68432 -28.07203,14.03602 -27.51059,-3.93009 0.56144,-17.9661 0.56144,-29.75635 9.54449,-26.38771 8.98305,3.36865 33.125,14.59746 33.68644,-2.8072 0.56144,-17.40466 15.72034,-38.17797 -10.66737,-23.01907 -26.38772,15.1589 -31.44068,16.28178 -30.3178,-2.24576 1.12288,-18.52754 1.12288,-37.61653 -21.33475,-51.0911 -22.45762,-13.47458 -44.35381,-19.65043 -11.79025,6.73729 32.56356,26.38771 20.7733,87.58474 13.47458,85.33898 -7.29873,-2.24576 -12.91314,-7.86017 -19.65043,7.29873 -6.73729,15.1589 -22.45763,20.21186 -28.63347,19.65042 -6.17585,-0.56144 -13.47458,23.01907 -6.73729,23.58051 6.73729,0.56144 40.98517,12.35169 52.21398,-3.36864 11.22882,-15.72034 11.79026,-7.86017 5.61441,1.12288 -6.17585,8.98305 -6.73729,19.65042 0,22.45762 6.73729,2.80721 6.17585,13.47458 -6.73729,14.03602 -6.9974,0.30423 -20.95462,2.01615 -30.73092,4.98064 -8.26509,2.50623 -13.06145,7.66948 -13.06145,-4.4192 0,-26.38771 -11.22882,-5.05296 -11.79026,-43.23093 -0.56144,-38.17797 -10.66737,-58.95127 -5.6144,-79.72458 5.05296,-20.7733 -3.36866,-19.08898 -12.91314,-33.68643 -6.50683,-9.95163 -5.59625,-5.91528 -17.10174,-19.08782 -0.97797,-1.11967 -1.14558,6.35436 0.81996,2.24459 z"
     id="path817"
     inkscape:connector-curvature="0"
     sodipodi:nodetypes="cssscsssscssssssscsssssscsscscsssssssssssssssssssssssccsssssscsssssssssssssscsssssssc" />
  <path
     style="fill:#000000;stroke:none;stroke-width:1px;stroke-linecap:butt;stroke-linejoin:miter;stroke-opacity:1"
     d="m 188.08263,175.73093 c 0,0 -3.36865,-8.98305 -19.08899,1.12288 -15.72033,10.10594 -20.7733,7.29873 -8.42161,16.28178 12.3517,8.98305 25.82628,6.17585 25.82628,3.93009 0,-2.24577 19.65042,-2.24577 16.28177,-8.98305 -3.36864,-6.73729 1.12289,-11.79026 -14.59745,-12.3517 z"
     id="path819"
     inkscape:connector-curvature="0" />
  <path
     style="fill:#000000;stroke:none;stroke-width:1px;stroke-linecap:butt;stroke-linejoin:miter;stroke-opacity:1"
     d="m 158.32627,106.67373 c 0,0 -14.03602,-10.667375 -17.40466,-2.24576 -3.36864,8.42161 0.56144,16.28178 6.73729,20.21186 6.17585,3.93008 -1.68432,24.14195 10.10593,26.94915 11.79025,2.80721 9.54449,6.17585 22.45763,-7.29873 12.91313,-13.47457 7.86017,-19.08898 13.47457,-19.65042 5.61441,-0.56144 8.42161,-15.72034 1.12289,-15.72034 -7.29873,0 -36.49365,-2.24576 -36.49365,-2.24576 z"
     id="path821"
     inkscape:connector-curvature="0" />
  <path
     style="fill:#000000;stroke:none;stroke-width:1px;stroke-linecap:butt;stroke-linejoin:miter;stroke-opacity:1"
     d="m 241.41949,131.37712 c 0,0 -14.03602,13.47457 6.73729,21.89618 20.77331,8.42161 24.70339,13.47458 29.75636,0.56145 5.05296,-12.91314 16.28178,-13.47458 16.28178,-13.47458 0,0 13.47457,-17.40466 -11.79026,-13.47458 -25.26483,3.93009 -40.42373,11.22882 -40.98517,4.49153 z"
     id="path823"
     inkscape:connector-curvature="0" />
  <path
     style="fill:#000000;stroke:none;stroke-width:1px;stroke-linecap:butt;stroke-linejoin:miter;stroke-opacity:1"
     d="m 121.27119,354.26907 c 0,0 -23.019071,61.75847 -16.28178,71.30296 6.73729,9.5445 10.10593,26.94916 15.72034,15.1589 5.6144,-11.79025 11.79025,12.91314 16.28178,1.68432 4.49152,-11.22881 11.79025,-6.17584 6.17584,-22.45762 -5.6144,-16.28178 -8.42161,-52.21399 -21.89618,-65.68856 z"
     id="path825"
     inkscape:connector-curvature="0" />
  <path
     style="fill:#000000;stroke:none;stroke-width:1px;stroke-linecap:butt;stroke-linejoin:miter;stroke-opacity:1"
     d="m 347.53178,346.4089 c 0,0 27.51059,21.33474 28.63347,33.125 1.12289,11.79025 37.05509,61.75847 43.79238,60.07415 6.73729,-1.68432 11.79025,-6.17585 12.35169,-14.59746 0.56144,-8.42161 22.45763,-10.66737 7.29873,-32.00212 -15.1589,-21.33474 -40.42373,-33.68644 -49.96822,-33.68644 -9.54449,0 -40.42373,-8.42161 -42.10805,-12.91313 z"
     id="path827"
     inkscape:connector-curvature="0" />
</svg>
