
<svg version="1.1" baseProfile="full" xmlns="http://www.w3.org/2000/svg" width="512" height="512" viewBox="0,0,512,512">

  <rect width="512" height="512" stroke="red" fill="white"></rect>

  <text x="2" y="12" font-size="12" text-anchor="start" fill="red">0</text>
  <path d="M256  64 H0 H512" stroke="lightgray" fill="white"></path>
  <text x="2" y="64" font-size="12" text-anchor="start" fill="red">64</text>
  <path d="M256 128 H0 H512" stroke="lightgray" fill="white"></path>
  <text x="2" y="128" font-size="12" text-anchor="start" fill="red">128</text>
  <path d="M256 192 H0 H512" stroke="lightgray" fill="white"></path>
  <text x="2" y="192" font-size="12" text-anchor="start" fill="red">192</text>
  <path d="M256 256 H0 H512" stroke="lightgray" fill="white"></path>
  <text x="2" y="256" font-size="12" text-anchor="start" fill="red">256</text>
  <path d="M256 320 H0 H512" stroke="lightgray" fill="white"></path>
  <text x="2" y="320" font-size="12" text-anchor="start" fill="red">320</text>
  <path d="M256 384 H0 H512" stroke="lightgray" fill="white"></path>
  <text x="2" y="384" font-size="12" text-anchor="start" fill="red">384</text>
  <path d="M256 448 H0 H512" stroke="lightgray" fill="white"></path>
  <text x="2" y="448" font-size="12" text-anchor="start" fill="red">448</text>
  <text x="2" y="512" font-size="12" text-anchor="start" fill="red">512</text>

  <path d="M64  0 V512" stroke="lightgray" fill="white"></path>
  <text x="64" y="12" font-size="12" text-anchor="start" fill="red">64</text>
  <path d="M128  0 V512" stroke="lightgray" fill="white"></path>
  <text x="128" y="12" font-size="12" text-anchor="start" fill="red">128</text>
  <path d="M195  0 V512" stroke="lightgray" fill="white"></path>
  <text x="192" y="12" font-size="12" text-anchor="start" fill="red">192</text>
  <path d="M256  0 V512" stroke="lightgray" fill="white"></path>
  <text x="256" y="12" font-size="12" text-anchor="start" fill="red">256</text>
  <path d="M320  0 V512" stroke="lightgray" fill="white"></path>
  <text x="320" y="12" font-size="12" text-anchor="start" fill="red">320</text>
  <path d="M384  0 V512" stroke="lightgray" fill="white"></path>
  <text x="384" y="12" font-size="12" text-anchor="start" fill="red">384</text>
  <path d="M448  0 V512" stroke="lightgray" fill="white"></path>
  <text x="448" y="12" font-size="12" text-anchor="start" fill="red">448</text>
  <text x="512" y="12" font-size="12" text-anchor="start" fill="red">512</text>
  
  
  <circle fill="white" stroke="black" stroke-width="2.5" cx="200" cy="192" r="36"/>
  <circle fill="white" stroke="black" stroke-width="2.5" cx="312" cy="192" r="36"/>
  <circle fill="white" stroke="black" stroke-width="2.5" cx="256" cy="256" r="56"/>
  <ellipse fill="white" stroke="black" stroke-width="2." cx="236" cy="236" rx="6" ry="12"/>
  <ellipse fill="white" stroke="black" stroke-width="2." cx="276" cy="236" rx="6" ry="12"/>
  <ellipse fill="black" stroke="black" stroke-width="2." cx="236" cy="232" rx="4" ry="8"/>
  <ellipse fill="black" stroke="black" stroke-width="2." cx="276" cy="238" rx="4" ry="8"/>
  <ellipse fill="black" stroke="black" stroke-width="2." cx="256" cy="276" rx="26" ry="13"/>
  <ellipse fill="white" stroke="white" stroke-width="2." cx="256" cy="268" rx="26" ry="13"/>

  <circle fill="black" stroke="black" stroke-width="2.5" cx="256" cy="256" r="3"/>

</svg>
