
<svg version="1.1" baseProfile="full" xmlns="http://www.w3.org/2000/svg" width="512" height="512" viewBox="0,0,512,512">

  <rect width="512" height="512" stroke="red" fill="white"></rect>

  <text x="2" y="12" font-size="12" text-anchor="start" fill="red">0</text>
  <path d="M256  64 H0 H512" stroke="lightgray" fill="white"></path>
  <text x="2" y="64" font-size="12" text-anchor="start" fill="red">64</text>
  <path d="M256 128 H0 H512" stroke="lightgray" fill="white"></path>
  <text x="2" y="128" font-size="12" text-anchor="start" fill="red">128</text>
  <path d="M256 192 H0 H512" stroke="lightgray" fill="white"></path>
  <text x="2" y="192" font-size="12" text-anchor="start" fill="red">192</text>
  <path d="M256 256 H0 H512" stroke="lightgray" fill="white"></path>
  <text x="2" y="256" font-size="12" text-anchor="start" fill="red">256</text>
  <path d="M256 320 H0 H512" stroke="lightgray" fill="white"></path>
  <text x="2" y="320" font-size="12" text-anchor="start" fill="red">320</text>
  <path d="M256 384 H0 H512" stroke="lightgray" fill="white"></path>
  <text x="2" y="384" font-size="12" text-anchor="start" fill="red">384</text>
  <path d="M256 448 H0 H512" stroke="lightgray" fill="white"></path>
  <text x="2" y="448" font-size="12" text-anchor="start" fill="red">448</text>
  <text x="2" y="512" font-size="12" text-anchor="start" fill="red">512</text>

  <path d="M64  0 V512" stroke="lightgray" fill="white"></path>
  <text x="64" y="12" font-size="12" text-anchor="start" fill="red">64</text>
  <path d="M128  0 V512" stroke="lightgray" fill="white"></path>
  <text x="128" y="12" font-size="12" text-anchor="start" fill="red">128</text>
  <path d="M195  0 V512" stroke="lightgray" fill="white"></path>
  <text x="192" y="12" font-size="12" text-anchor="start" fill="red">192</text>
  <path d="M256  0 V512" stroke="lightgray" fill="white"></path>
  <text x="256" y="12" font-size="12" text-anchor="start" fill="red">256</text>
  <path d="M320  0 V512" stroke="lightgray" fill="white"></path>
  <text x="320" y="12" font-size="12" text-anchor="start" fill="red">320</text>
  <path d="M384  0 V512" stroke="lightgray" fill="white"></path>
  <text x="384" y="12" font-size="12" text-anchor="start" fill="red">384</text>
  <path d="M448  0 V512" stroke="lightgray" fill="white"></path>
  <text x="448" y="12" font-size="12" text-anchor="start" fill="red">448</text>
  <text x="512" y="12" font-size="12" text-anchor="start" fill="red">512</text>

  <ellipse fill="blue" stroke="black" stroke-width="2.5" cx="256" cy="256" rx="80" ry="77"/>
  <ellipse fill="white" stroke="black" stroke-width="2.5" cx="256" cy="265" rx="65" ry="60"/>
  <rect x="208" y="322" rx="10" ry="10" width="96" height="12" stroke="black" stroke-width="2" fill="red"/>
  <circle fill="white" stroke="black" stroke-width="1.5" cx="238" cy="208" r="17.5"/>
  <circle fill="white" stroke="black" stroke-width="1.5" cx="274" cy="208" r="17.5"/>
  <circle fill="black" stroke="black" stroke-width="1.5" cx="246" cy="208" r="6"/>
  <circle fill="black" stroke="black" stroke-width="1.5" cx="266" cy="208" r="6"/>
  <rect x="218.5" y="261" rx="10" ry="10" width="75" height="40" stroke="black" stroke-width="2" fill="red"/>
  
  <rect  x="226" y="246" fill="black" stroke="black" width="60" height="1"/>
  <rect  x="256" y="236" fill="black" stroke="black" width="1" height="10"/>
<circle fill="red" stroke="black" stroke-width="1.5" cx="256" cy="234" r="6"/>
</svg>
