<?xml version="1.0" encoding="UTF-8" standalone="no"?>
<!-- Created with Inkscape (http://www.inkscape.org/) -->

<svg
   xmlns:dc="http://purl.org/dc/elements/1.1/"
   xmlns:cc="http://creativecommons.org/ns#"
   xmlns:rdf="http://www.w3.org/1999/02/22-rdf-syntax-ns#"
   xmlns:svg="http://www.w3.org/2000/svg"
   xmlns="http://www.w3.org/2000/svg"
   xmlns:sodipodi="http://sodipodi.sourceforge.net/DTD/sodipodi-0.dtd"
   xmlns:inkscape="http://www.inkscape.org/namespaces/inkscape"
   version="1.1"
   id="svg2"
   width="540"
   height="540"
   viewBox="0 0 540 540"
   sodipodi:docname="U+4F3C.svg"
   inkscape:version="0.92.4 (5da689c313, 2019-01-14)">
  <metadata
     id="metadata8">
    <rdf:RDF>
      <cc:Work
         rdf:about="">
        <dc:format>image/svg+xml</dc:format>
        <dc:type
           rdf:resource="http://purl.org/dc/dcmitype/StillImage" />
        <dc:title></dc:title>
      </cc:Work>
    </rdf:RDF>
  </metadata>
  <defs
     id="defs6" />
  <sodipodi:namedview
     pagecolor="#ffffff"
     bordercolor="#666666"
     borderopacity="1"
     objecttolerance="10"
     gridtolerance="10"
     guidetolerance="10"
     inkscape:pageopacity="0"
     inkscape:pageshadow="2"
     inkscape:window-width="1920"
     inkscape:window-height="1017"
     id="namedview4"
     showgrid="false"
     inkscape:zoom="1.2361274"
     inkscape:cx="182.08433"
     inkscape:cy="270.08708"
     inkscape:window-x="-8"
     inkscape:window-y="-8"
     inkscape:window-maximized="1"
     inkscape:current-layer="svg2" />
  <path
     style="fill:#000000;stroke:none;stroke-width:1px;stroke-linecap:butt;stroke-linejoin:miter;stroke-opacity:1"
     d="M 142.38015,99.915915 C 142.38015,99.915915 177.93114,82.16163 169.8854,119.33139 166.95852,132.85297 171.68367,134.88982 172.61731,139.494 174.84122,150.46112 174.73927,153.30847 174.73927,153.30847 174.73927,153.30847 106.78511,238.25117 101.12226,264.13847 99.175551,273.03771 76.830821,287.5033 64.844623,301.26123 43.315907,325.97222 12.94365,335.32854 12.94365,335.32854 12.94365,335.32854 151.2789,173.53292 152.08788,127.42117 152.30801,114.87352 150.07157,116.82573 149.05456,112.18343 146.33413,99.765595 142.38015,99.915915 142.38015,99.915915 Z"
     id="path4532"
     inkscape:connector-curvature="0"
     sodipodi:nodetypes="csscsscssc" />
  <path
     style="fill:#000000;stroke:none;stroke-width:1px;stroke-linecap:butt;stroke-linejoin:miter;stroke-opacity:1"
     d="M 123.77365,251.19482 C 123.77365,251.19482 147.23401,245.53197 143.18912,298.11555 139.14423,350.69913 140.76219,456.67526 130.24547,454.24832 119.72876,451.82139 114.87489,430.78796 114.87489,430.78796 114.87489,430.78796 121.34671,432.40591 115.68387,414.60839 110.02102,396.81088 141.57117,362.02482 130.24547,298.92453 118.91978,235.82424 123.77365,251.19482 123.77365,251.19482 Z"
     id="path4534"
     inkscape:connector-curvature="0" />
  <path
     style="fill:#000000;stroke:none;stroke-width:1px;stroke-linecap:butt;stroke-linejoin:miter;stroke-opacity:1"
     d="M 139.14423,330.47467 C 139.14423,330.47467 169.07642,377.3954 194.15474,366.06971 219.23306,354.74402 209.52533,351.5081 241.07547,302.16044 272.62562,252.81278 263.72686,249.57686 263.72686,249.57686 263.72686,249.57686 174.73927,338.56445 139.14423,330.47467 Z"
     id="path4536"
     inkscape:connector-curvature="0" />
  <path
     style="fill:#000000;stroke:none;stroke-width:1px;stroke-linecap:butt;stroke-linejoin:miter;stroke-opacity:1"
     d="M 183.63803,193.75737 C 183.63803,193.75737 166.64949,218.02672 181.21109,238.25117 195.7727,258.47562 200.62657,240.6781 200.62657,273.03723 200.62657,305.39635 225.70489,352.31708 223.27795,289.21679 220.85102,226.1165 226.51387,230.97037 204.67146,213.17285 182.82905,195.37533 183.63803,193.75737 183.63803,193.75737 Z"
     id="path4538"
     inkscape:connector-curvature="0" />
  <path
     style="fill:#000000;stroke:none;stroke-width:1px;stroke-linecap:butt;stroke-linejoin:miter;stroke-opacity:1"
     d="M 299.3219,225.30752 C 299.3219,225.30752 353.52343,191.33044 295.27701,210.74591 237.03058,230.16139 224.89591,230.97037 224.89591,230.97037 224.89591,230.97037 201.43555,233.3973 230.55876,246.34095 259.68197,259.2846 264.53584,264.94745 278.28847,244.72299 292.04109,224.49854 299.3219,225.30752 299.3219,225.30752 Z"
     id="path4540"
     inkscape:connector-curvature="0" />
  <path
     style="fill:#000000;stroke:none;stroke-width:1px;stroke-linecap:butt;stroke-linejoin:miter;stroke-opacity:1"
     d="M 478.91503,168.67905 C 478.91503,168.67905 499.94846,211.55489 490.24073,226.1165 480.53299,240.6781 454.64569,306.20533 369.70299,349.89015 284.76029,393.57496 432.80328,327.23876 432.80328,327.23876 432.80328,327.23876 528.2627,239.86913 514.51007,208.31898 500.75744,176.76883 495.0946,166.25212 478.91503,168.67905 Z"
     id="path4542"
     inkscape:connector-curvature="0" />
  <path
     style="fill:#000000;stroke:none;stroke-width:1px;stroke-linecap:butt;stroke-linejoin:miter;stroke-opacity:1"
     d="M 484.57788,401.66475 C 484.57788,401.66475 470.49494,377.66259 441.05155,358.54481 421.14887,345.62188 399.06024,331.85543 351.09649,340.99138 329.48248,345.10834 335.13844,343.67893 332.70352,341.82364 321.74161,333.47116 447.21437,286.9305 490.24073,367.68767 507.84407,400.72778 493.6112,380.66805 492.71641,385.63956 490.93835,395.51862 484.57788,401.66475 484.57788,401.66475 Z"
     id="path4544"
     inkscape:connector-curvature="0"
     sodipodi:nodetypes="csssssc" />
</svg>
