<?xml version="1.0" encoding="UTF-8" standalone="no"?>
<!-- Created with Inkscape (http://www.inkscape.org/) -->

<svg
   xmlns:dc="http://purl.org/dc/elements/1.1/"
   xmlns:cc="http://creativecommons.org/ns#"
   xmlns:rdf="http://www.w3.org/1999/02/22-rdf-syntax-ns#"
   xmlns:svg="http://www.w3.org/2000/svg"
   xmlns="http://www.w3.org/2000/svg"
   xmlns:sodipodi="http://sodipodi.sourceforge.net/DTD/sodipodi-0.dtd"
   xmlns:inkscape="http://www.inkscape.org/namespaces/inkscape"
   version="1.1"
   id="svg2"
   width="530"
   height="530"
   viewBox="0 0 530 530"
   sodipodi:docname="U+51CA.svg"
   inkscape:version="0.92.4 (5da689c313, 2019-01-14)">
  <metadata
     id="metadata8">
    <rdf:RDF>
      <cc:Work
         rdf:about="">
        <dc:format>image/svg+xml</dc:format>
        <dc:type
           rdf:resource="http://purl.org/dc/dcmitype/StillImage" />
        <dc:title></dc:title>
      </cc:Work>
    </rdf:RDF>
  </metadata>
  <defs
     id="defs6" />
  <sodipodi:namedview
     pagecolor="#ffffff"
     bordercolor="#666666"
     borderopacity="1"
     objecttolerance="10"
     gridtolerance="10"
     guidetolerance="10"
     inkscape:pageopacity="0"
     inkscape:pageshadow="2"
     inkscape:window-width="1920"
     inkscape:window-height="1001"
     id="namedview4"
     showgrid="false"
     inkscape:zoom="1.2594506"
     inkscape:cx="285.7601"
     inkscape:cy="254.79989"
     inkscape:window-x="-9"
     inkscape:window-y="-9"
     inkscape:window-maximized="1"
     inkscape:current-layer="svg2" />
  <path
     style="fill:#000000;stroke:none;stroke-width:1px;stroke-linecap:butt;stroke-linejoin:miter;stroke-opacity:1"
     d="m 53.991797,140.94146 c 0,0 34.141872,37.31786 28.583893,53.9918 -5.557979,16.67393 54.78579,3.96998 42.87584,-14.29195 -11.90996,-18.26193 -52.403804,-43.66984 -71.459733,-39.69985 z"
     id="path4520"
     inkscape:connector-curvature="0" />
  <path
     style="fill:#000000;stroke:none;stroke-width:1px;stroke-linecap:butt;stroke-linejoin:miter;stroke-opacity:1"
     d="m 49.227815,306.09284 c 0,0 71.459735,-32.55388 51.609805,-12.70395 -19.849924,19.84992 -37.317858,42.08184 -26.995897,50.81581 10.321961,8.73396 24.613908,15.08594 5.557979,23.02591 -19.055928,7.93997 -31.759881,2.38199 -31.759881,-25.4079 0,-27.7899 -26.995898,-57.16779 -9.527964,-49.22782 17.467935,7.93997 11.115958,13.49795 11.115958,13.49795 z"
     id="path4526"
     inkscape:connector-curvature="0" />
  <path
     style="fill:#000000;stroke:none;stroke-width:1px;stroke-linecap:butt;stroke-linejoin:miter;stroke-opacity:1"
     d="m 106.3956,259.24702 c 0,0 47.63982,39.69985 55.57979,15.08594 7.93997,-24.61391 220.73117,-71.45973 220.73117,-71.45973 0,0 100.04363,2.38199 113.54158,21.43792 13.49795,19.05593 7.93997,-12.70396 7.93997,-12.70396 0,0 26.9959,6.35198 9.52796,-7.93997 C 496.24814,189.37528 424.78841,167.14336 412.87845,184.6113 400.9685,202.07923 311.24683,198.90324 106.3956,259.24702 Z"
     id="path4528"
     inkscape:connector-curvature="0" />
  <path
     style="fill:#000000;stroke:none;stroke-width:1px;stroke-linecap:butt;stroke-linejoin:miter;stroke-opacity:1"
     d="m 202.46924,186.19929 c 0,0 33.34788,26.9959 42.08184,19.84993 8.73397,-7.14598 42.87584,-33.34788 39.69985,-12.70396 -3.17598,20.64393 17.46794,35.72987 19.05593,6.35198 1.588,-29.37789 2.38199,-26.2019 22.23192,-30.17189 19.84992,-3.96998 53.9918,-1.58799 52.4038,-15.08594 -1.58799,-13.49795 -48.43382,-12.70395 -69.07774,3.17599 -20.64392,15.87994 -106.3956,28.58389 -106.3956,28.58389 z"
     id="path4530"
     inkscape:connector-curvature="0" />
  <path
     style="fill:#000000;stroke:none;stroke-width:1px;stroke-linecap:butt;stroke-linejoin:miter;stroke-opacity:1"
     d="m 238.19911,117.12155 c 0,0 10.32196,38.90585 49.22781,19.84992 38.90586,-19.05592 84.16369,-28.58389 84.16369,-28.58389 0,0 3.17598,-20.643921 -30.17189,-18.26193 -33.34788,2.381991 -90.51566,38.90585 -103.21961,26.9959 z"
     id="path4532"
     inkscape:connector-curvature="0" />
  <path
     style="fill:#000000;stroke:none;stroke-width:1px;stroke-linecap:butt;stroke-linejoin:miter;stroke-opacity:1"
     d="m 248.52107,10.725948 c 0,0 20.64392,11.909955 25.4079,76.223714 4.76398,64.313758 9.52797,88.927668 9.52797,88.927668 0,0 23.81991,42.87584 26.2019,-32.55388 2.38199,-75.429717 11.11596,-84.957681 1.58799,-96.867636 -9.52796,-11.909956 -48.43382,-35.729866 -62.72576,-35.729866 z"
     id="path4534"
     inkscape:connector-curvature="0" />
  <path
     style="fill:#000000;stroke:none;stroke-width:1px;stroke-linecap:butt;stroke-linejoin:miter;stroke-opacity:1"
     d="m 248.52107,275.12696 c 0,0 23.02591,13.49795 16.67394,50.81581 -6.35198,37.31786 -4.76399,175.47334 -15.87995,150.06543 -11.11595,-25.4079 -21.43791,-15.08594 -15.87994,-57.96178 5.55798,-42.87584 11.90996,-12.70395 10.32197,-73.04773 -1.588,-60.34377 -10.32197,5.55798 4.76398,-69.87173 z"
     id="path4536"
     inkscape:connector-curvature="0" />
  <path
     style="fill:#000000;stroke:none;stroke-width:1px;stroke-linecap:butt;stroke-linejoin:miter;stroke-opacity:1"
     d="m 272.34098,311.65082 c 0,0 34.93587,41.28784 42.08184,29.37789 7.14597,-11.90996 -2.38199,-23.02591 -42.08184,-29.37789 z"
     id="path4538"
     inkscape:connector-curvature="0" />
  <path
     style="fill:#000000;stroke:none;stroke-width:1px;stroke-linecap:butt;stroke-linejoin:miter;stroke-opacity:1"
     d="m 251.69706,377.55257 c 0,0 83.36968,-2.38199 91.30965,7.14597 7.93997,9.52797 -80.98769,11.11596 -85.75167,15.08595 -4.76399,3.96998 -5.55798,-22.23192 -5.55798,-22.23192 z"
     id="path4540"
     inkscape:connector-curvature="0" />
  <path
     style="fill:#000000;stroke:none;stroke-width:1px;stroke-linecap:butt;stroke-linejoin:miter;stroke-opacity:1"
     d="m 297.74888,279.09694 c 0,0 36.52387,-24.61391 38.11186,15.08594 1.58799,39.69986 7.93997,94.48565 7.93997,94.48565 0,0 4.76398,69.07774 -8.73397,50.81581 -13.49795,-18.26193 16.67394,49.22781 16.67394,49.22781 0,0 33.34788,59.54978 24.61391,-1.58799 -8.73397,-61.13777 -18.26193,-203.26324 -18.26193,-203.26324 0,0 25.4079,-28.58389 -9.52797,-41.28784 -34.93587,-12.70395 -10.32196,-17.46794 -45.25783,1.58799 -34.93587,19.05593 -71.45973,10.32196 -5.55798,34.93587 z"
     id="path4542"
     inkscape:connector-curvature="0" />
</svg>
