<?xml version="1.0" encoding="UTF-8" standalone="no"?>
<!-- Created with Inkscape (http://www.inkscape.org/) -->

<svg
   xmlns:dc="http://purl.org/dc/elements/1.1/"
   xmlns:cc="http://creativecommons.org/ns#"
   xmlns:rdf="http://www.w3.org/1999/02/22-rdf-syntax-ns#"
   xmlns:svg="http://www.w3.org/2000/svg"
   xmlns="http://www.w3.org/2000/svg"
   xmlns:sodipodi="http://sodipodi.sourceforge.net/DTD/sodipodi-0.dtd"
   xmlns:inkscape="http://www.inkscape.org/namespaces/inkscape"
   version="1.1"
   id="svg2"
   width="600"
   height="600"
   viewBox="0 0 600 600"
   sodipodi:docname="U+5C65.svg"
   inkscape:version="0.92.4 (5da689c313, 2019-01-14)">
  <metadata
     id="metadata8">
    <rdf:RDF>
      <cc:Work
         rdf:about="">
        <dc:format>image/svg+xml</dc:format>
        <dc:type
           rdf:resource="http://purl.org/dc/dcmitype/StillImage" />
        <dc:title></dc:title>
      </cc:Work>
    </rdf:RDF>
  </metadata>
  <defs
     id="defs6" />
  <sodipodi:namedview
     pagecolor="#ffffff"
     bordercolor="#666666"
     borderopacity="1"
     objecttolerance="10"
     gridtolerance="10"
     guidetolerance="10"
     inkscape:pageopacity="0"
     inkscape:pageshadow="2"
     inkscape:window-width="1920"
     inkscape:window-height="1017"
     id="namedview4"
     showgrid="false"
     inkscape:zoom="1.1125147"
     inkscape:cx="253.70614"
     inkscape:cy="278.45669"
     inkscape:window-x="-8"
     inkscape:window-y="-8"
     inkscape:window-maximized="1"
     inkscape:current-layer="svg2" />
  <path
     style="fill:#000000;stroke:none;stroke-width:1px;stroke-linecap:butt;stroke-linejoin:miter;stroke-opacity:1"
     d="M 214.82863,115.51201 C 214.82863,115.51201 229.21046,144.27567 253.4798,134.38816 277.74915,124.50065 353.25377,97.534715 354.15263,104.72563 355.0515,111.91655 413.47769,104.72563 396.39927,86.74834 379.32084,68.771049 370.3322,74.164236 341.56853,84.051747 312.80486,93.939257 311.00714,103.82677 214.82863,115.51201 Z"
     id="path817"
     inkscape:connector-curvature="0" />
  <path
     style="fill:#000000;stroke:none;stroke-width:1px;stroke-linecap:butt;stroke-linejoin:miter;stroke-opacity:1"
     d="M 225.615,164.94956 C 225.615,164.94956 207.63771,169.44388 222.91841,184.72458 238.19911,200.00527 266.06391,178.43252 266.06391,178.43252 266.06391,178.43252 349.65831,151.46659 362.24241,159.55637 374.82652,167.64615 395.5004,134.38816 371.23106,135.28703 346.96172,136.18589 262.46845,159.55637 225.615,164.94956 Z"
     id="path819"
     inkscape:connector-curvature="0" />
  <path
     style="fill:#000000;stroke:none;stroke-width:1px;stroke-linecap:butt;stroke-linejoin:miter;stroke-opacity:1"
     d="M 359.54582,75.961966 341.56853,146.0734 373.92765,144.27567 385.61289,75.063101 C 385.61289,75.063101 370.3322,66.074455 359.54582,75.961966 Z"
     id="path821"
     inkscape:connector-curvature="0" />
  <path
     style="fill:#000000;stroke:none;stroke-width:1px;stroke-linecap:butt;stroke-linejoin:miter;stroke-opacity:1"
     d="M 162.69448,84.950611 C 162.69448,84.950611 183.36837,101.13017 194.15474,97.534715 204.94112,93.939257 175.27859,222.47689 175.27859,222.47689 175.27859,222.47689 179.77291,297.98151 151.00924,366.29522 122.24558,434.60892 133.93082,431.01346 109.66148,466.96805 85.392133,502.92263 64.718248,542.47267 54.830738,546.06813 44.943228,549.66359 42.246634,511.91127 42.246634,511.91127 42.246634,511.91127 9.8875101,582.02271 38.651176,587.4159 67.414841,592.80908 53.931873,565.84315 63.819383,551.46131 73.706893,537.07948 120.44785,494.83285 132.13309,457.9794 143.81833,421.12595 185.1661,324.04858 181.57064,306.97016 177.97518,289.89173 187.86269,179.33139 197.7502,173.03934 207.63771,166.74729 217.52522,97.534715 212.13203,91.242663 206.73885,84.950611 170.78427,74.164236 162.69448,84.950611 Z"
     id="path823"
     inkscape:connector-curvature="0" />
  <path
     style="fill:#000000;stroke:none;stroke-width:1px;stroke-linecap:butt;stroke-linejoin:miter;stroke-opacity:1"
     d="M 305.61395,181.12912 C 305.61395,181.12912 333.47875,199.10641 321.79351,204.4996 310.10827,209.89278 296.6253,215.28597 286.73779,208.99392 276.85028,202.70187 275.05255,233.26326 295.72644,239.55531 316.40032,245.84737 310.10827,221.57802 371.23106,209.89278 432.35385,198.20754 451.23001,203.60073 464.71297,212.58938 478.19594,221.57802 482.69026,185.62344 470.10616,186.52231 457.52206,187.42117 445.83682,160.45523 417.97202,175.73593 390.10722,191.01663 357.74809,201.803 357.74809,201.803 357.74809,201.803 359.54582,173.9382 305.61395,181.12912 Z"
     id="path825"
     inkscape:connector-curvature="0" />
  <path
     style="fill:#000000;stroke:none;stroke-width:1px;stroke-linecap:butt;stroke-linejoin:miter;stroke-opacity:1"
     d="M 224.71614,208.99392 C 224.71614,208.99392 226.51387,231.46553 234.60365,236.85872 242.69343,242.25191 231.90705,432.81119 231.90705,432.81119 231.90705,432.81119 220.22182,420.22709 216.62636,422.92368 213.0309,425.62028 219.32295,470.5635 222.91841,473.2601 226.51387,475.95669 230.10933,506.51809 235.50251,501.1249 240.8957,495.73171 242.69343,484.94534 244.49116,423.82255 246.28889,362.69976 243.59229,244.9485 249.88435,238.65645 256.1764,232.3644 282.24347,227.87008 250.78321,211.69051 219.32295,195.51095 224.71614,208.99392 224.71614,208.99392 Z"
     id="path827"
     inkscape:connector-curvature="0" />
  <path
     style="fill:#000000;stroke:none;stroke-width:1px;stroke-linecap:butt;stroke-linejoin:miter;stroke-opacity:1"
     d="M 195.05361,248.54396 C 195.05361,248.54396 186.06496,254.83601 194.15474,275.5099 202.24452,296.18378 193.25588,321.35199 193.25588,321.35199 193.25588,321.35199 216.62636,284.49854 210.33431,269.21784 204.04225,253.93715 204.94112,242.25191 195.05361,248.54396 Z"
     id="path829"
     inkscape:connector-curvature="0" />
  <path
     style="fill:#000000;stroke:none;stroke-width:1px;stroke-linecap:butt;stroke-linejoin:miter;stroke-opacity:1"
     d="M 164.49221,393.26115 C 164.49221,393.26115 167.18881,426.51914 187.86269,422.92368 208.53658,419.32822 180.67178,419.32822 227.41273,351.01452 274.15369,282.70081 277.74915,276.40876 273.25482,276.40876 268.7605,276.40876 189.66042,390.56456 164.49221,393.26115 Z"
     id="path831"
     inkscape:connector-curvature="0" />
  <path
     style="fill:#000000;stroke:none;stroke-width:1px;stroke-linecap:butt;stroke-linejoin:miter;stroke-opacity:1"
     d="M 291.23212,258.43147 C 291.23212,258.43147 304.71508,269.21784 302.01849,284.49854 299.3219,299.77924 308.31054,333.93609 322.69237,323.14972 337.07421,312.36334 311.906,249.44282 291.23212,258.43147 Z"
     id="path833"
     inkscape:connector-curvature="0" />
  <path
     style="fill:#000000;stroke:none;stroke-width:1px;stroke-linecap:butt;stroke-linejoin:miter;stroke-opacity:1"
     d="M 327.1867,247.6451 C 327.1867,247.6451 335.27648,266.52125 347.86058,261.12806 360.44469,255.73488 394.60154,242.25191 392.80381,259.33033 391.00608,276.40876 399.99473,315.9588 379.32084,318.65539 358.64696,321.35199 275.95142,357.30657 265.16504,343.8236 254.37867,330.34063 261.56958,386.07024 282.24347,370.78954 302.91735,355.50884 299.3219,345.62133 368.53447,332.13836 437.74704,318.65539 448.53341,310.56561 434.15158,305.17243 419.76975,299.77924 408.08451,314.16107 407.18564,300.6781 406.28678,287.19514 407.18564,241.35304 417.07315,238.65645 426.96066,235.95986 382.01744,195.51095 377.52311,226.07235 373.02879,256.63374 356.84923,224.27462 327.1867,247.6451 Z"
     id="path835"
     inkscape:connector-curvature="0" />
  <path
     style="fill:#000000;stroke:none;stroke-width:1px;stroke-linecap:butt;stroke-linejoin:miter;stroke-opacity:1"
     d="M 249.88435,386.07024 C 249.88435,386.07024 468.30843,488.5408 479.99367,507.41695 491.67891,526.29311 560.89148,556.8545 560.89148,546.96699 560.89148,537.07948 542.91419,498.42831 513.25166,489.43966 483.58913,480.45101 343.36626,406.74412 249.88435,386.07024 Z"
     id="path837"
     inkscape:connector-curvature="0" />
  <path
     style="fill:#000000;stroke:none;stroke-width:1px;stroke-linecap:butt;stroke-linejoin:miter;stroke-opacity:1"
     d="M 373.02879,333.03723 C 373.02879,333.03723 230.10933,460.67599 240.8957,467.86691 251.68207,475.05783 394.60154,327.64404 394.60154,327.64404 394.60154,327.64404 395.5004,317.75653 373.02879,333.03723 Z"
     id="path839"
     inkscape:connector-curvature="0" />
  <path
     style="fill:#000000;stroke:none;stroke-width:1px;stroke-linecap:butt;stroke-linejoin:miter;stroke-opacity:1"
     d="M 408.98337,354.60998 C 408.98337,354.60998 402.69132,369.89067 406.28678,377.98046 409.88224,386.07024 391.90495,432.81119 370.3322,444.49643 348.75945,456.18167 313.70373,478.65329 303.81622,475.05783 293.92871,471.46237 244.49116,444.49643 274.15369,476.85556 303.81622,509.21468 379.32084,463.37259 381.11857,462.47372 382.9163,461.57486 418.87088,397.75548 438.6459,387.86797 458.42092,377.98046 431.45499,364.49749 408.98337,354.60998 Z"
     id="path841"
     inkscape:connector-curvature="0" />
  <path
     style="fill:#000000;stroke:none;stroke-width:1px;stroke-linecap:butt;stroke-linejoin:miter;stroke-opacity:1"
     d="M 358.64696,272.8133 C 358.64696,272.8133 328.98443,280.00422 355.95036,291.68946 382.9163,303.3747 382.01744,272.8133 382.01744,272.8133 382.01744,272.8133 382.9163,261.12806 358.64696,272.8133 Z"
     id="path843"
     inkscape:connector-curvature="0" />
</svg>
