<?xml version="1.0" encoding="UTF-8" standalone="no"?>
<!-- Created with Inkscape (http://www.inkscape.org/) -->

<svg
   xmlns:dc="http://purl.org/dc/elements/1.1/"
   xmlns:cc="http://creativecommons.org/ns#"
   xmlns:rdf="http://www.w3.org/1999/02/22-rdf-syntax-ns#"
   xmlns:svg="http://www.w3.org/2000/svg"
   xmlns="http://www.w3.org/2000/svg"
   xmlns:sodipodi="http://sodipodi.sourceforge.net/DTD/sodipodi-0.dtd"
   xmlns:inkscape="http://www.inkscape.org/namespaces/inkscape"
   version="1.1"
   id="svg2"
   width="560"
   height="560"
   viewBox="0 0 560 560"
   sodipodi:docname="U+6DF1.svg"
   inkscape:version="0.92.4 (5da689c313, 2019-01-14)">
  <metadata
     id="metadata8">
    <rdf:RDF>
      <cc:Work
         rdf:about="">
        <dc:format>image/svg+xml</dc:format>
        <dc:type
           rdf:resource="http://purl.org/dc/dcmitype/StillImage" />
        <dc:title></dc:title>
      </cc:Work>
    </rdf:RDF>
  </metadata>
  <defs
     id="defs6" />
  <sodipodi:namedview
     pagecolor="#ffffff"
     bordercolor="#666666"
     borderopacity="1"
     objecttolerance="10"
     gridtolerance="10"
     guidetolerance="10"
     inkscape:pageopacity="0"
     inkscape:pageshadow="2"
     inkscape:window-width="1920"
     inkscape:window-height="1017"
     id="namedview4"
     showgrid="false"
     inkscape:zoom="1.6857143"
     inkscape:cx="241.17379"
     inkscape:cy="263.72789"
     inkscape:window-x="-8"
     inkscape:window-y="-8"
     inkscape:window-maximized="1"
     inkscape:current-layer="svg2" />
  <path
     style="fill:#000000;stroke:none;stroke-width:1px;stroke-linecap:butt;stroke-linejoin:miter;stroke-opacity:1"
     d="M 46.271186,116.86441 C 46.271186,116.86441 55.169492,141.18644 78.305085,148.30508 101.44068,155.42373 88.983051,167.28814 89.576271,172.62712 90.169492,177.9661 121.01695,158.38983 121.01695,158.38983 121.01695,158.38983 131.69492,135.84746 100.25424,126.94915 68.813559,118.05085 75.932203,129.91525 46.271186,116.86441 Z"
     id="path817"
     inkscape:connector-curvature="0" />
  <path
     style="fill:#000000;stroke:none;stroke-width:1px;stroke-linecap:butt;stroke-linejoin:miter;stroke-opacity:1"
     d="M 17.79661,208.81356 C 17.79661,208.81356 29.661017,236.10169 48.644068,241.44068 67.627119,246.77966 58.135593,286.52542 58.135593,286.52542 58.135593,286.52542 50.423729,281.18644 42.711864,282.9661 35,284.74576 30.847458,288.30508 35,281.18644 39.152542,274.0678 35.59322,250.9322 21.949153,244.40678 8.3050848,237.88136 17.79661,208.81356 17.79661,208.81356 Z"
     id="path821"
     inkscape:connector-curvature="0" />
  <path
     style="fill:#000000;stroke:none;stroke-width:1px;stroke-linecap:butt;stroke-linejoin:miter;stroke-opacity:1"
     d="M 103.81356,293.05085 40.338983,405.16949 C 40.338983,405.16949 33.813559,411.69492 60.508475,428.30508 87.20339,444.91525 74.745763,451.44068 89.576271,451.44068 104.40678,451.44068 72.966102,418.22034 80.677966,396.27119 88.389831,374.32203 95.508475,309.66102 103.81356,293.05085 Z"
     id="path823"
     inkscape:connector-curvature="0" />
  <path
     style="fill:#000000;stroke:none;stroke-width:1px;stroke-linecap:butt;stroke-linejoin:miter;stroke-opacity:1"
     d="M 185.08475,125.16949 C 185.08475,125.16949 202.28814,156.61017 190.42373,173.81356 178.55932,191.01695 171.44068,181.52542 171.44068,181.52542 171.44068,181.52542 167.28814,187.45763 173.81356,218.8983 180.33898,250.33898 211.18644,169.0678 211.18644,169.0678 211.18644,169.0678 212.37288,122.79661 195.76271,122.79661 179.15254,122.79661 215.9322,120.42373 185.08475,125.16949 Z"
     id="path825"
     inkscape:connector-curvature="0" />
  <path
     style="fill:#000000;stroke:none;stroke-width:1px;stroke-linecap:butt;stroke-linejoin:miter;stroke-opacity:1"
     d="M 379.0678,96.694915 C 379.0678,96.694915 399.23729,125.76271 384.40678,135.25424 369.57627,144.74576 408.13559,155.42373 414.66102,145.33898 421.18644,135.25424 431.27119,119.23729 412.28814,97.881355 393.30509,76.525423 379.0678,96.694915 379.0678,96.694915 Z"
     id="path827"
     inkscape:connector-curvature="0" />
  <path
     style="fill:#000000;stroke:none;stroke-width:1px;stroke-linecap:butt;stroke-linejoin:miter;stroke-opacity:1"
     d="M 178.55932,154.23729 C 178.55932,154.23729 211.18644,168.47458 219.49153,149.49152 227.79661,130.50847 390.33898,112.71186 390.33898,112.71186 390.33898,112.71186 410.50848,95.508474 368.98305,102.0339 327.45763,108.55932 271.1017,116.27119 253.89831,116.86441 236.69492,117.45763 170.84746,150.67797 178.55932,154.23729 Z"
     id="path829"
     inkscape:connector-curvature="0" />
  <path
     style="fill:#000000;stroke:none;stroke-width:1px;stroke-linecap:butt;stroke-linejoin:miter;stroke-opacity:1"
     d="M 231.94915,217.11864 C 231.94915,217.11864 215.9322,224.83051 228.98305,231.35593 242.0339,237.88136 262.79661,187.45763 262.79661,187.45763 262.79661,187.45763 286.52542,158.38983 262.79661,147.71186 239.0678,137.0339 231.94915,141.18644 232.54237,153.05085 233.13559,164.91525 237.88136,154.23729 243.22034,161.94915 248.55932,169.66102 231.94915,217.11864 231.94915,217.11864 Z"
     id="path831"
     inkscape:connector-curvature="0" />
  <path
     style="fill:#000000;stroke:none;stroke-width:1px;stroke-linecap:butt;stroke-linejoin:miter;stroke-opacity:1"
     d="M 311.44068,130.50847 C 311.44068,130.50847 304.32203,184.49153 326.27119,188.05085 348.22034,191.61017 371.94915,189.83051 373.72881,178.55932 375.50847,167.28814 359.49153,157.79661 348.81356,162.54237 338.13559,167.28814 326.27119,170.25424 338.72881,156.01695 351.18644,141.77966 311.44068,130.50847 311.44068,130.50847 Z"
     id="path833"
     inkscape:connector-curvature="0" />
  <path
     style="fill:#000000;stroke:none;stroke-width:1px;stroke-linecap:butt;stroke-linejoin:miter;stroke-opacity:1"
     d="M 216.52542,258.64407 196.35593,254.49153 191.01695,271.10169 C 191.01695,271.10169 202.88136,301.35593 214.74576,294.23729 226.61017,287.11864 326.86441,241.44068 365.42373,242.62712 403.98305,243.81356 385,224.83051 385,224.83051 385,224.83051 355.33898,202.88136 328.05085,220.08475 300.76271,237.28814 216.52542,258.64407 216.52542,258.64407 Z"
     id="path835"
     inkscape:connector-curvature="0" />
  <path
     style="fill:#000000;stroke:none;stroke-width:1px;stroke-linecap:butt;stroke-linejoin:miter;stroke-opacity:1"
     d="M 272.28814,198.72881 C 272.28814,198.72881 314.40678,185.08475 312.62712,212.9661 310.84746,240.84746 301.35593,186.27119 302.54237,263.98305 303.72881,341.69492 316.77966,450.84746 316.77966,450.84746 316.77966,450.84746 300.76271,485.25424 293.64407,470.42373 286.52542,455.59322 263.98305,431.27119 250.9322,429.49153 237.88136,427.71186 282.37288,420.59322 289.49153,426.52542 296.61017,432.45763 293.05085,377.28814 293.05085,377.28814 L 291.27119,307.88136 C 291.27119,307.88136 307.28814,256.86441 241.44068,347.62712 175.59322,438.38983 127.54237,407.54237 127.54237,407.54237 127.54237,407.54237 142.9661,409.91525 172.62712,383.22034 202.28814,356.52542 236.1017,328.64407 244.40678,315 252.71186,301.35593 278.81356,268.13559 275.84746,258.64407 272.88136,249.15254 287.11864,239.66102 287.11864,239.66102 287.11864,239.66102 298.38983,211.77966 284.15254,213.55932 269.91525,215.33898 272.28814,198.72881 272.28814,198.72881 Z"
     id="path837"
     inkscape:connector-curvature="0" />
  <path
     style="fill:#000000;stroke:none;stroke-width:1px;stroke-linecap:butt;stroke-linejoin:miter;stroke-opacity:1"
     d="M 287.11864,239.66102 352.9661,313.22034 405.76271,369.57627 C 405.76271,369.57627 436.01695,398.05085 443.72881,384.40678 451.44068,370.76271 450.25424,375.50847 466.86441,380.84746 483.47458,386.18644 547.54237,370.16949 547.54237,370.16949 547.54237,370.16949 580.16949,370.76271 529.15254,355.33898 478.13559,339.91525 406.94915,333.98305 401.61017,323.8983 396.27119,313.81356 320.9322,263.98305 310.25424,246.18644 299.57627,228.38983 287.11864,239.66102 287.11864,239.66102 Z"
     id="path839"
     inkscape:connector-curvature="0" />
</svg>
