<?xml version="1.0" encoding="UTF-8" standalone="no"?>
<!-- Created with Inkscape (http://www.inkscape.org/) -->

<svg
   xmlns:dc="http://purl.org/dc/elements/1.1/"
   xmlns:cc="http://creativecommons.org/ns#"
   xmlns:rdf="http://www.w3.org/1999/02/22-rdf-syntax-ns#"
   xmlns:svg="http://www.w3.org/2000/svg"
   xmlns="http://www.w3.org/2000/svg"
   xmlns:sodipodi="http://sodipodi.sourceforge.net/DTD/sodipodi-0.dtd"
   xmlns:inkscape="http://www.inkscape.org/namespaces/inkscape"
   width="512"
   height="512"
   viewBox="0 0 512 512"
   version="1.1"
   id="svg8"
   inkscape:version="0.92.4 (5da689c313, 2019-01-14)"
   sodipodi:docname="U+6EAB.svg">
  <defs
     id="defs2" />
  <sodipodi:namedview
     id="base"
     pagecolor="#ffffff"
     bordercolor="#666666"
     borderopacity="1.0"
     inkscape:pageopacity="0.0"
     inkscape:pageshadow="2"
     inkscape:zoom="1.4"
     inkscape:cx="110.99097"
     inkscape:cy="241.74481"
     inkscape:document-units="px"
     inkscape:current-layer="layer1"
     showgrid="false"
     units="px"
     inkscape:window-width="1920"
     inkscape:window-height="1001"
     inkscape:window-x="-9"
     inkscape:window-y="-9"
     inkscape:window-maximized="1" />
  <metadata
     id="metadata5">
    <rdf:RDF>
      <cc:Work
         rdf:about="">
        <dc:format>image/svg+xml</dc:format>
        <dc:type
           rdf:resource="http://purl.org/dc/dcmitype/StillImage" />
        <dc:title></dc:title>
      </cc:Work>
    </rdf:RDF>
  </metadata>
  <g
     inkscape:label="圖層 1"
     inkscape:groupmode="layer"
     id="layer1"
     transform="translate(0,-161.53333)">
    <path
       style="fill:#000000;stroke:none;stroke-width:1px;stroke-linecap:butt;stroke-linejoin:miter;stroke-opacity:1"
       d="m 51.428571,304.9619 c 0,0 -6.428571,19.28572 9.285715,22.85714 15.714286,3.57143 17.857143,21.42858 16.428571,32.14286 -1.428571,10.71429 14.285715,-10.71428 30.714283,-5 16.42857,5.71429 14.28572,-40.71428 -56.428569,-50 z"
       id="path3735"
       inkscape:connector-curvature="0" />
    <path
       style="fill:#000000;stroke:none;stroke-width:1px;stroke-linecap:butt;stroke-linejoin:miter;stroke-opacity:1"
       d="m 14.285714,406.39047 c 0,0 15.714286,36.42857 32.142857,38.57143 16.428572,2.14286 23.571429,28.57143 15.714286,33.57143 -7.857143,5 -16.428571,-7.14286 -33.571428,-2.14286 -17.142858,5 -41.428572,-60 -14.285715,-70 z"
       id="path3737"
       inkscape:connector-curvature="0" />
    <path
       style="fill:#000000;stroke:none;stroke-width:1px;stroke-linecap:butt;stroke-linejoin:miter;stroke-opacity:1"
       d="m 100,497.10476 c 0,0 -52.142857,72.14286 -65.714286,65.71428 -13.571428,-6.42857 -1.428571,29.28572 3.571429,28.57143 5,-0.71428 8.571428,50 22.857143,43.57143 C 75,628.53333 87.857143,631.39047 85,624.24762 82.142857,617.10476 58.571429,596.39047 67.142857,583.53333 75.714286,570.67619 100,497.10476 100,497.10476 Z"
       id="path3739"
       inkscape:connector-curvature="0" />
    <path
       style="fill:#000000;stroke:none;stroke-width:1px;stroke-linecap:butt;stroke-linejoin:miter;stroke-opacity:1"
       d="m 175.71429,330.67619 c 0,0 -23.57143,9.28571 1.42857,42.85714 25,33.57143 19.28571,72.85714 19.28571,72.85714 0,0 -22.14286,14.28572 6.42857,17.85715 28.57143,3.57142 24.28572,-6.42858 24.28572,-6.42858 l 75.71428,-18.57142 c 0,0 27.85715,8.57142 22.14286,-2.14286 -5.71429,-10.71429 -22.14286,-70 -3.57143,-89.28572 18.57143,-19.28571 22.85714,-11.42857 22.85714,-11.42857 0,0 -5,-11.42857 2.85715,-13.57143 C 355,320.67619 351.42857,310.67619 355,308.53333 c 3.57143,-2.14286 -25.71429,-9.28571 -33.57143,-32.14286 -7.85714,-22.85714 -25.71428,3.57143 -22.85714,12.14286 2.85714,8.57143 -79.28572,32.85714 -85,13.57143 -5.71429,-19.28572 -10.71429,11.42857 -10.71429,11.42857 0,0 10,23.57143 7.14286,23.57143 -2.85714,0 22.85714,12.14286 25.71429,7.14286 2.85714,-5 42.14285,-27.85715 62.14285,-23.57143 20,4.28571 -2.14285,100 -2.14285,100 l -77.14286,21.42857 c 0,0 21.42857,-71.42857 -42.85714,-111.42857 z"
       id="path3741"
       inkscape:connector-curvature="0" />
    <path
       style="fill:#000000;stroke:none;stroke-width:1px;stroke-linecap:butt;stroke-linejoin:miter;stroke-opacity:1"
       d="m 246.42857,378.53333 c 0,0 -25.71428,4.28571 2.85714,19.28571 28.57143,15 14.28572,-7.14285 25,-10 10.71429,-2.85714 19.28572,-19.28571 14.28572,-19.28571 -5,0 -40.71429,-0.71429 -42.14286,10 z"
       id="path3743"
       inkscape:connector-curvature="0" />
    <path
       style="fill:#000000;stroke:none;stroke-width:1px;stroke-linecap:butt;stroke-linejoin:miter;stroke-opacity:1"
       d="m 204.28571,498.53333 c 0,0 -22.85714,-15 -7.85714,15 15,30 26.42857,-5.71429 43.57143,-2.85714 17.14286,2.85714 103.57143,-34.28572 105,-10 1.42857,24.28571 -10,60.71428 -19.28571,59.28571 -9.28572,-1.42857 -2.14286,20.71429 8.57142,22.14286 C 345,583.53333 352.14286,516.39047 375,503.53333 c 22.85714,-12.85714 -28.57143,-35 -40.71429,-35 -12.14285,0 -122.85714,35.71429 -130,30 z"
       id="path3745"
       inkscape:connector-curvature="0" />
    <path
       style="fill:#000000;stroke:none;stroke-width:1px;stroke-linecap:butt;stroke-linejoin:miter;stroke-opacity:1"
       d="m 264.28571,530.67619 c 0,0 -16.42857,19.28571 7.85715,32.85714 24.28571,13.57143 40,4.28571 40,4.28571 0,0 -12.14286,-14.28571 -47.85715,-37.14285 z"
       id="path3747"
       inkscape:connector-curvature="0" />
    <path
       style="fill:#000000;stroke:none;stroke-width:1px;stroke-linecap:butt;stroke-linejoin:miter;stroke-opacity:1"
       d="m 228.57143,539.9619 c 0,0 5,34.28572 -2.14286,35.71429 -7.14286,1.42857 20.71429,23.57143 23.57143,-4.28572 2.85714,-27.85714 -25.71429,-24.28571 -21.42857,-31.42857 z"
       id="path3749"
       inkscape:connector-curvature="0" />
    <path
       style="fill:#000000;stroke:none;stroke-width:1px;stroke-linecap:butt;stroke-linejoin:miter;stroke-opacity:1"
       d="m 183.57143,607.10476 c 0,0 -2.14286,-45 -33.57143,-70 -31.42857,-25 -4.28571,-32.14286 18.57143,-12.85714 22.85714,19.28571 18.57143,25 30.71428,60 12.14286,35 -29.28571,14.28571 55.71429,5.71428 85,-8.57143 109.28571,-9.28571 110,-19.28571 0.71429,-10 95,27.85714 92.85714,42.14285 -2.14285,14.28572 4.28572,25 -40.71428,9.28572 -45,-15.71429 -91.42857,-37.14286 -193.57143,-10.71429 -102.14286,26.42857 -77.85714,39.28572 -77.85714,39.28572 0,0 -20.71429,5 -30.71429,-30.71429 -10,-35.71428 5.71429,27.85714 68.57143,-12.85714 z"
       id="path3751"
       inkscape:connector-curvature="0" />
  </g>
</svg>
