<?xml version="1.0" encoding="UTF-8" standalone="no"?>
<!-- Created with Inkscape (http://www.inkscape.org/) -->

<svg
   xmlns:dc="http://purl.org/dc/elements/1.1/"
   xmlns:cc="http://creativecommons.org/ns#"
   xmlns:rdf="http://www.w3.org/1999/02/22-rdf-syntax-ns#"
   xmlns:svg="http://www.w3.org/2000/svg"
   xmlns="http://www.w3.org/2000/svg"
   xmlns:sodipodi="http://sodipodi.sourceforge.net/DTD/sodipodi-0.dtd"
   xmlns:inkscape="http://www.inkscape.org/namespaces/inkscape"
   version="1.1"
   id="svg2"
   width="610"
   height="610"
   viewBox="0 0 610 610"
   sodipodi:docname="U+862D.svg"
   inkscape:version="0.92.4 (5da689c313, 2019-01-14)">
  <metadata
     id="metadata8">
    <rdf:RDF>
      <cc:Work
         rdf:about="">
        <dc:format>image/svg+xml</dc:format>
        <dc:type
           rdf:resource="http://purl.org/dc/dcmitype/StillImage" />
        <dc:title></dc:title>
      </cc:Work>
    </rdf:RDF>
  </metadata>
  <defs
     id="defs6" />
  <sodipodi:namedview
     pagecolor="#ffffff"
     bordercolor="#666666"
     borderopacity="1"
     objecttolerance="10"
     gridtolerance="10"
     guidetolerance="10"
     inkscape:pageopacity="0"
     inkscape:pageshadow="2"
     inkscape:window-width="1920"
     inkscape:window-height="1001"
     id="namedview4"
     showgrid="false"
     inkscape:zoom="1.0942767"
     inkscape:cx="351.22681"
     inkscape:cy="302.39679"
     inkscape:window-x="-9"
     inkscape:window-y="-9"
     inkscape:window-maximized="1"
     inkscape:current-layer="svg2" />
  <path
     style="fill:#000000;stroke:none;stroke-width:1px;stroke-linecap:butt;stroke-linejoin:miter;stroke-opacity:1"
     d="m 192.82143,71.744925 c 0,0 52.0892,20.104603 53.00304,47.519975 0.91385,27.41537 10.05231,61.22765 -4.56922,48.43382 -14.62153,-12.79384 -28.32922,-33.81229 -34.72614,-66.71074 -6.39692,-32.898438 -13.70768,-29.243055 -13.70768,-29.243055 z"
     id="path817"
     inkscape:connector-curvature="0" />
  <path
     style="fill:#000000;stroke:none;stroke-width:1px;stroke-linecap:butt;stroke-linejoin:miter;stroke-opacity:1"
     d="m 178.1999,135.71412 -12.79384,-10.96615 c 0,0 -16.44922,2.74154 -5.48307,17.36307 10.96614,14.62153 0,37.46767 15.53537,26.50152 15.53538,-10.96615 38.38152,-26.50152 53.00305,-25.58768 14.62153,0.91385 10.96614,-30.1569 -17.36307,-18.27691 -28.32921,11.87999 4.56923,10.0523 -32.89844,10.96615 z"
     id="path819"
     inkscape:connector-curvature="0" />
  <path
     style="fill:#000000;stroke:none;stroke-width:1px;stroke-linecap:butt;stroke-linejoin:miter;stroke-opacity:1"
     d="m 397.52285,92.763374 c 0,0 13.70768,7.310766 27.41537,-0.913846 13.70768,-8.22461 43.86459,19.190762 14.62153,23.759982 -29.24306,4.56923 -105.09225,20.10461 -106.0061,25.58768 -0.91384,5.48308 -38.38151,-17.36306 -21.01844,-20.1046 17.36306,-2.74154 80.41841,-15.53538 84.98764,-28.329216 z"
     id="path821"
     inkscape:connector-curvature="0" />
  <path
     style="fill:#000000;stroke:none;stroke-width:1px;stroke-linecap:butt;stroke-linejoin:miter;stroke-opacity:1"
     d="m 355.48595,23.311106 c 0,0 -7.31077,15.535376 3.65538,28.329215 10.96615,12.793839 -70.36611,142.559919 -70.36611,142.559919 l 66.71073,-66.71073 c 0,0 47.51997,-80.418417 36.55382,-84.987646 -10.96614,-4.569228 -18.27691,-21.932295 -36.55382,-19.190758 z"
     id="path823"
     inkscape:connector-curvature="0" />
  <path
     style="fill:#000000;stroke:none;stroke-width:1px;stroke-linecap:butt;stroke-linejoin:miter;stroke-opacity:1"
     d="m 175.45836,199.68331 c 0,0 36.55383,-2.74153 37.46767,-17.36306 0.91385,-14.62153 39.29536,26.50152 31.07075,32.89844 -8.22461,6.39692 -15.53537,17.36307 -14.62153,40.20921 0.91385,22.84614 -2.74153,26.50152 20.10461,9.13845 22.84614,-17.36306 44.77843,-59.39996 35.63998,-35.63998 -9.13846,23.75999 -63.9692,79.50457 -63.9692,79.50457 0,0 -3.65538,21.9323 -23.75998,13.70769 -20.10461,-8.22461 -13.70769,-35.63998 -2.74154,-29.24306 10.96615,6.39692 22.84614,-2.74154 21.01845,-10.96615 -1.82769,-8.22461 3.65538,-24.67383 -10.96615,-17.36307 -14.62153,7.31077 -33.81229,-6.39692 -17.36307,-15.53537 16.44923,-9.13846 22.84614,3.65538 24.67384,-12.79384 1.82769,-16.44922 10.96614,-33.81229 -14.62153,-16.44922 -25.58768,17.36306 -32.89845,16.44922 -40.20921,-2.74154 -7.31077,-19.19076 -16.44922,-27.41537 18.27691,-17.36307 z"
     id="path825"
     inkscape:connector-curvature="0" />
  <path
     style="fill:#000000;stroke:none;stroke-width:1px;stroke-linecap:butt;stroke-linejoin:miter;stroke-opacity:1"
     d="m 134.33531,252.68636 c 0,0 26.50152,5.48307 31.07075,31.07075 4.56923,25.58768 -31.07075,217.49526 -24.67383,223.89218 6.39692,6.39692 0.91384,37.46767 -6.39692,42.95074 -7.31077,5.48308 -9.13846,-25.58767 -16.44922,-28.32921 -7.31077,-2.74154 7.31076,-38.38152 7.31076,-38.38152 0,0 13.70769,-57.57227 12.79384,-81.33226 -0.91385,-23.75998 14.62153,-95.03994 7.31077,-111.48916 -7.31077,-16.44923 -57.57228,-49.34767 -10.96615,-38.38152 z"
     id="path829"
     inkscape:connector-curvature="0" />
  <path
     style="fill:#000000;stroke:none;stroke-width:1px;stroke-linecap:butt;stroke-linejoin:miter;stroke-opacity:1"
     d="m 317.10443,180.49255 c 0,0 49.34767,21.9323 46.60613,33.81229 -2.74154,11.88 -9.13846,55.74459 -16.44922,48.43382 -7.31077,-7.31076 -15.53538,-65.79688 -24.67383,-66.71073 -9.13846,-0.91385 -23.75999,-25.58768 -5.48308,-15.53538 z"
     id="path831"
     inkscape:connector-curvature="0" />
  <path
     style="fill:#000000;stroke:none;stroke-width:1px;stroke-linecap:butt;stroke-linejoin:miter;stroke-opacity:1"
     d="m 354.5721,232.58176 c 0,0 52.0892,-25.58768 49.34767,-6.39692 -2.74154,19.19075 -24.67383,26.50152 -31.07075,22.84614 -6.39692,-3.65539 -19.19076,-10.96615 -18.27692,-16.44922 z"
     id="path833"
     inkscape:connector-curvature="0" />
  <path
     style="fill:#000000;stroke:none;stroke-width:1px;stroke-linecap:butt;stroke-linejoin:miter;stroke-opacity:1"
     d="m 426.76591,159.4741 c 0,0 -50.26151,29.24307 -58.48612,18.27692 -8.22461,-10.96615 -1.82769,39.29536 24.67383,26.50152 26.50152,-12.79384 44.77844,-31.9846 41.12305,-9.13846 -3.65538,22.84615 0,176.37221 1.8277,186.42451 1.82769,10.0523 27.41536,162.66452 0.91384,156.26761 -26.50152,-6.39692 -31.07075,-15.53538 -13.70768,13.70768 17.36306,29.24306 25.58767,36.55382 23.75998,43.86459 -1.82769,7.31076 9.13846,24.67383 19.19076,8.22461 10.0523,-16.44922 11.87999,-53.91689 0.91385,-90.47072 -10.96615,-36.55382 -32.89845,-254.96293 -11.88,-298.82752 21.01845,-43.86459 34.72614,-21.01845 12.79384,-56.65843 -21.93229,-35.63998 -27.41537,-34.72613 -41.12305,1.82769 z"
     id="path835"
     inkscape:connector-curvature="0" />
  <path
     style="fill:#000000;stroke:none;stroke-width:1px;stroke-linecap:butt;stroke-linejoin:miter;stroke-opacity:1"
     d="m 236.68602,324.88016 c 0,0 -34.72614,5.48308 -7.31077,17.36307 27.41537,11.87999 31.9846,-16.44922 70.36612,-20.1046 38.38151,-3.65539 65.79688,-13.70769 51.17535,-17.36307 -14.62153,-3.65538 -46.60613,-0.91385 -62.1415,6.39692 -15.53538,7.31076 -43.86459,21.93229 -52.0892,13.70768 z"
     id="path837"
     inkscape:connector-curvature="0" />
  <path
     style="fill:#000000;stroke:none;stroke-width:1px;stroke-linecap:butt;stroke-linejoin:miter;stroke-opacity:1"
     d="m 300.65521,292.89557 c 0,0 3.65538,-21.01845 -21.93229,-24.67384 -25.58768,-3.65538 -20.10461,5.48308 -0.91385,19.19076 19.19076,13.70769 16.44922,130.67993 16.44922,130.67993 0,0 10.96615,82.2461 -10.96615,74.93534 -21.93229,-7.31077 8.22462,26.50152 8.22462,26.50152 0,0 21.01845,22.84614 21.93229,-4.56923 0.91385,-27.41536 -9.13846,-43.86459 -5.48307,-75.84918 3.65538,-31.9846 -24.67384,-142.55992 -7.31077,-146.2153 z"
     id="path839"
     inkscape:connector-curvature="0" />
  <path
     style="fill:#000000;stroke:none;stroke-width:1px;stroke-linecap:butt;stroke-linejoin:miter;stroke-opacity:1"
     d="m 225.71987,364.17553 c 0,0 22.84614,10.96614 27.41537,33.81228 4.56923,22.84614 29.24306,31.07076 26.50152,14.62153 -2.74153,-16.44922 -13.70768,-24.67383 -13.70768,-24.67383 0,0 -26.50153,-4.56923 6.39692,-11.87999 32.89844,-7.31077 91.38456,-34.72613 89.55687,-10.96615 -1.82769,23.75999 0.91384,55.74458 -6.39692,55.74458 -7.31077,0 -115.14455,35.63998 -114.2307,22.84615 0.91384,-12.79384 -15.53538,-61.22766 -22.84614,-61.22766 -7.31077,0 -26.50153,-10.0523 -26.50153,-10.0523 0,0 -8.22461,-2.74154 -7.31076,11.87999 0.91384,14.62153 14.62153,-3.65538 24.67383,20.1046 10.0523,23.75999 23.75999,53.9169 3.65538,53.00305 -20.1046,-0.91385 -0.91384,31.07075 21.9323,17.36307 22.84614,-13.70769 106.00609,-42.95075 128.85223,-36.55383 22.84614,6.39692 10.96615,-19.19076 7.31077,-19.19076 -3.65539,0 18.27691,-59.39996 26.50152,-59.39996 8.22461,0 15.53537,-27.41537 -4.56923,-29.24306 -20.1046,-1.82769 -4.56923,-20.10461 -42.0369,3.65538 -37.46767,23.75999 -117.88608,33.81229 -125.19685,30.15691 z"
     id="path841"
     inkscape:connector-curvature="0" />
  <path
     style="fill:#000000;stroke:none;stroke-width:1px;stroke-linecap:butt;stroke-linejoin:miter;stroke-opacity:1"
     d="m 298.82752,379.7109 c 0,0 45.69228,-4.56923 40.20921,20.10461 -5.48308,24.67383 -12.79384,-0.91385 -40.20921,-20.10461 z"
     id="path843"
     inkscape:connector-curvature="0" />
  <path
     style="fill:#000000;stroke:none;stroke-width:1px;stroke-linecap:butt;stroke-linejoin:miter;stroke-opacity:1"
     d="m 335.38135,469.26777 c 0,0 42.95074,-2.74153 52.0892,19.19076 9.13845,21.9323 6.39692,24.67383 -3.65539,23.75999 -10.0523,-0.91385 -30.1569,-10.0523 -30.1569,-10.0523 0,0 19.19076,-3.65539 5.48307,-11.88 -13.70768,-8.22461 -23.75998,-21.01845 -23.75998,-21.01845 z"
     id="path845"
     inkscape:connector-curvature="0" />
  <path
     style="fill:#000000;stroke:none;stroke-width:1px;stroke-linecap:butt;stroke-linejoin:miter;stroke-opacity:1"
     d="m 209.27065,484.80315 c 0,0 20.1046,23.75999 15.53537,33.81229 -4.56922,10.0523 -5.48307,23.75998 -16.44922,2.74153 -10.96614,-21.01845 -2.74153,-37.46767 0.91385,-36.55382 z"
     id="path847"
     inkscape:connector-curvature="0" />
  <path
     style="fill:#000000;stroke:none;stroke-width:1px;stroke-linecap:butt;stroke-linejoin:miter;stroke-opacity:1"
     d="m 331.72596,262.73866 c 0,0 -13.70768,14.62153 -1.82769,21.9323 11.88,7.31076 5.48308,33.81228 26.50153,12.79383 21.01844,-21.01844 76.76303,-24.67383 76.76303,-24.67383 0,0 10.96615,-24.67383 -29.24306,-10.0523 -40.20921,14.62153 -64.88304,13.70769 -72.19381,0 z"
     id="path849"
     inkscape:connector-curvature="0" />
</svg>
