
<svg version="1.1" baseProfile="full" xmlns="http://www.w3.org/2000/svg" width="512" height="512" viewBox="0,0,512,512">

  <rect width="512" height="512" stroke="red" fill="white"></rect>

  <text x="2" y="12" font-size="12" text-anchor="start" fill="red">0</text>
  <path d="M256  64 H0 H512" stroke="lightgray" fill="white"></path>
  <text x="2" y="64" font-size="12" text-anchor="start" fill="red">64</text>
  <path d="M256 128 H0 H512" stroke="lightgray" fill="white"></path>
  <text x="2" y="128" font-size="12" text-anchor="start" fill="red">128</text>
  <path d="M256 192 H0 H512" stroke="lightgray" fill="white"></path>
  <text x="2" y="192" font-size="12" text-anchor="start" fill="red">192</text>
  <path d="M256 256 H0 H512" stroke="lightgray" fill="white"></path>
  <text x="2" y="256" font-size="12" text-anchor="start" fill="red">256</text>
  <path d="M256 320 H0 H512" stroke="lightgray" fill="white"></path>
  <text x="2" y="320" font-size="12" text-anchor="start" fill="red">320</text>
  <path d="M256 384 H0 H512" stroke="lightgray" fill="white"></path>
  <text x="2" y="384" font-size="12" text-anchor="start" fill="red">384</text>
  <path d="M256 448 H0 H512" stroke="lightgray" fill="white"></path>
  <text x="2" y="448" font-size="12" text-anchor="start" fill="red">448</text>
  <text x="2" y="512" font-size="12" text-anchor="start" fill="red">512</text>

  <path d="M64  0 V512" stroke="lightgray" fill="white"></path>
  <text x="64" y="12" font-size="12" text-anchor="start" fill="red">64</text>
  <path d="M128  0 V512" stroke="lightgray" fill="white"></path>
  <text x="128" y="12" font-size="12" text-anchor="start" fill="red">128</text>
  <path d="M195  0 V512" stroke="lightgray" fill="white"></path>
  <text x="192" y="12" font-size="12" text-anchor="start" fill="red">192</text>
  <path d="M256  0 V512" stroke="lightgray" fill="white"></path>
  <text x="256" y="12" font-size="12" text-anchor="start" fill="red">256</text>
  <path d="M320  0 V512" stroke="lightgray" fill="white"></path>
  <text x="320" y="12" font-size="12" text-anchor="start" fill="red">320</text>
  <path d="M384  0 V512" stroke="lightgray" fill="white"></path>
  <text x="384" y="12" font-size="12" text-anchor="start" fill="red">384</text>
  <path d="M448  0 V512" stroke="lightgray" fill="white"></path>
  <text x="448" y="12" font-size="12" text-anchor="start" fill="red">448</text>
  <text x="512" y="12" font-size="12" text-anchor="start" fill="red">512</text>

  <ellipse fill="white" stroke="black" stroke-width="2.5" cx="256" cy="256" rx="91" ry="76"/>
  <polygon fill="white" stroke="black" stroke-width="2" points="177,167 177,216 216,188"/>
  <polygon fill="white" stroke="black" stroke-width="2" points="335,167 335,216 296,188"/>
  <ellipse fill="white" stroke="white" stroke-width="2.5" cx="205" cy="202" rx="23" ry="12"/>
  <ellipse fill="white" stroke="white" stroke-width="2.5" cx="307" cy="202" rx="23" ry="12"/>

  <ellipse fill="yellow" stroke="black" stroke-width="2.5" cx="256" cy="290" rx="10" ry="6"/>
  <ellipse fill="black" stroke="black" stroke-width="2.5" cx="220" cy="266" rx="8" ry="12"/> 
  <ellipse fill="black" stroke="black" stroke-width="2.5" cx="292" cy="266" rx="8" ry="12"/>

  <polygon fill="red" stroke="black" stroke-width="2" points="305,167 315,206 279,188"/>
  <polygon fill="red" stroke="black" stroke-width="2" points="325,245 315,206 351,224"/>
  <circle fill="red" stroke="black" stroke-width="1.9" cx="315" cy="206" r="12"/>
  <polygon fill="black" stroke="black" stroke-width="2" points="182,255 146,245"/>
  <polygon fill="black" stroke="black" stroke-width="2" points="330,255 366,245"/>
  <polygon fill="black" stroke="black" stroke-width="2" points="182,270 141,270"/>
  <polygon fill="black" stroke="black" stroke-width="2" points="330,270 371,270"/>
  <polygon fill="black" stroke="black" stroke-width="2" points="182,285 146,295"/>
  <polygon fill="black" stroke="black" stroke-width="2" points="330,285 366,295"/>


</svg>
