<?xml version="1.0" encoding="UTF-8" standalone="no"?>
<!-- Created with Inkscape (http://www.inkscape.org/) -->

<svg
   xmlns:dc="http://purl.org/dc/elements/1.1/"
   xmlns:cc="http://creativecommons.org/ns#"
   xmlns:rdf="http://www.w3.org/1999/02/22-rdf-syntax-ns#"
   xmlns:svg="http://www.w3.org/2000/svg"
   xmlns="http://www.w3.org/2000/svg"
   xmlns:xlink="http://www.w3.org/1999/xlink"
   xmlns:sodipodi="http://sodipodi.sourceforge.net/DTD/sodipodi-0.dtd"
   xmlns:inkscape="http://www.inkscape.org/namespaces/inkscape"
   version="1.1"
   id="svg2"
   width="590"
   height="590"
   viewBox="0 0 590 590"
   sodipodi:docname="U+65AF.svg"
   inkscape:version="0.92.4 (5da689c313, 2019-01-14)">
  <metadata
     id="metadata8">
    <rdf:RDF>
      <cc:Work
         rdf:about="">
        <dc:format>image/svg+xml</dc:format>
        <dc:type
           rdf:resource="http://purl.org/dc/dcmitype/StillImage" />
        <dc:title></dc:title>
      </cc:Work>
    </rdf:RDF>
  </metadata>
  <defs
     id="defs6" />
  <sodipodi:namedview
     pagecolor="#ffffff"
     bordercolor="#666666"
     borderopacity="1"
     objecttolerance="10"
     gridtolerance="10"
     guidetolerance="10"
     inkscape:pageopacity="0"
     inkscape:pageshadow="2"
     inkscape:window-width="1920"
     inkscape:window-height="1001"
     id="namedview4"
     showgrid="false"
     inkscape:zoom="1.1313708"
     inkscape:cx="373.02778"
     inkscape:cy="268.68457"
     inkscape:window-x="-9"
     inkscape:window-y="-9"
     inkscape:window-maximized="1"
     inkscape:current-layer="svg2" />
  <image
     width="590"
     height="590"
     preserveAspectRatio="none"
     xlink:href="file:///E:/portfolio/labs/lab03/1000png/U+65AF.png"
     id="image10"
     x="0"
     y="0"
     sodipodi:absref="E:\portfolio\labs\lab03\1000png\U+65AF.png" />
  <path
     style="fill:#000000;stroke:none;stroke-width:1px;stroke-linecap:butt;stroke-linejoin:miter;stroke-opacity:1"
     d="m 186.49941,145.40661 c 0,0 -32.70368,12.37437 -45.96194,-3.53553 -13.25825,-15.90991 -1.76776,28.28427 12.37437,36.23922 14.14214,7.95495 32.70369,-5.3033 32.70369,-5.3033 0,0 93.69165,-44.19418 112.2532,-41.54252 18.56155,2.65165 25.63262,-8.83884 25.63262,-8.83884 0,0 -4.41941,-14.14214 -30.05204,-14.14214 -25.63262,0 -47.7297,34.47146 -106.9499,37.12311 z"
     id="path817"
     inkscape:connector-curvature="0" />
  <path
     style="fill:#000000;stroke:none;stroke-width:1px;stroke-linecap:butt;stroke-linejoin:miter;stroke-opacity:1"
     d="m 214.78368,128.61282 c 0,0 -1.76776,-18.56155 -23.86485,-19.44543 -22.09709,-0.88389 -8.83883,0 -18.56155,-13.258254 -9.72272,-13.258252 -3.53554,31.819804 7.07107,32.703684 10.6066,0.88389 16.79378,27.40039 13.25825,60.10408 -3.53554,32.70369 -3.53554,119.32427 -3.53554,119.32427 0,0 15.02602,16.79379 11.49049,-15.9099 -3.53553,-32.70369 13.25825,-2.65165 22.98097,-7.07107 9.72272,-4.41942 23.86485,-46.84582 10.6066,-47.72971 -13.25825,-0.88388 -33.58757,16.79379 -33.58757,16.79379 l 4.41942,-42.42641 c 0,0 36.23922,15.9099 36.23922,4.41942 0,-11.49049 9.72272,-50.38136 -8.83884,-32.70369 -18.56155,17.67767 -36.23922,32.70369 -26.5165,0 9.72272,-32.70369 8.83883,-54.80078 8.83883,-54.80078 z"
     id="path819"
     inkscape:connector-curvature="0" />
  <path
     style="fill:#000000;stroke:none;stroke-width:1px;stroke-linecap:butt;stroke-linejoin:miter;stroke-opacity:1"
     d="m 246.60349,34.921176 c 0,0 16.79379,8.838835 9.72272,72.478444 -7.07107,63.63961 -8.83884,211.24815 -8.83884,211.24815 0,0 15.02602,37.12311 14.14214,7.95495 -0.88388,-29.16815 -3.53553,-91.92388 -3.53553,-91.92388 0,0 -1.76777,-95.45941 9.72271,-97.22718 11.49049,-1.76777 5.3033,-22.09709 5.3033,-22.09709 0,0 5.30331,-30.052035 15.02602,-30.935919 9.72272,-0.883883 7.95495,-38.890873 -41.54252,-49.497475 z"
     id="path821"
     inkscape:connector-curvature="0" />
  <path
     style="fill:none;stroke:#000000;stroke-width:1px;stroke-linecap:butt;stroke-linejoin:miter;stroke-opacity:1"
     d="M 48.613591,358.42253 Z"
     id="path823"
     inkscape:connector-curvature="0" />
  <path
     style="fill:#000000;stroke:none;stroke-width:1px;stroke-linecap:butt;stroke-linejoin:miter;stroke-opacity:1"
     d="m 48.613591,358.42253 c 0,0 144.956889,-60.98796 200.641549,-65.40738 55.68466,-4.41942 35.35534,-28.28427 60.10408,-15.9099 24.74873,12.37437 37.1231,23.86485 20.32932,30.93592 -16.79379,7.07107 -0.88389,-26.5165 -76.01398,-1.76777 C 178.54446,331.02214 84.852814,359.30641 63.63961,376.98408 42.426407,394.66175 2.6516499,335.44156 48.613591,358.42253 Z"
     id="path825"
     inkscape:connector-curvature="0" />
  <path
     style="fill:#000000;stroke:none;stroke-width:1px;stroke-linecap:butt;stroke-linejoin:miter;stroke-opacity:1"
     d="m 187.3833,353.11923 c 0,0 -27.40039,46.84582 -77.78175,70.71068 -50.381357,23.86485 34.47146,21.2132 63.63961,-17.67767 29.16816,-38.89088 14.14214,-53.03301 14.14214,-53.03301 z"
     id="path827"
     inkscape:connector-curvature="0" />
  <path
     style="fill:#000000;stroke:none;stroke-width:1px;stroke-linecap:butt;stroke-linejoin:miter;stroke-opacity:1"
     d="m 250.13902,356.65476 c 0,0 32.70369,87.50447 30.93593,98.11107 -1.76777,10.6066 33.58757,-10.6066 22.98097,-40.65864 -10.60661,-30.05204 -22.98097,-15.02602 -53.9169,-57.45243 z"
     id="path829"
     inkscape:connector-curvature="0" />
  <path
     style="fill:#000000;stroke:none;stroke-width:1px;stroke-linecap:butt;stroke-linejoin:miter;stroke-opacity:1"
     d="m 421.61242,117.12234 c 0,0 22.09709,17.67767 -60.10408,66.29126 -82.20116,48.61359 56.56854,-22.98097 75.1301,-15.9099 18.56155,7.07107 7.07107,-49.49748 -15.02602,-50.38136 z"
     id="path831"
     inkscape:connector-curvature="0" />
  <path
     style="fill:#000000;stroke:none;stroke-width:1px;stroke-linecap:butt;stroke-linejoin:miter;stroke-opacity:1"
     d="m 322.61747,165.73593 c 0,0 -5.3033,13.25825 6.18718,30.93592 11.49049,17.67767 26.51651,25.63262 21.21321,80.4334 -5.3033,54.80077 -17.67767,117.5565 -41.54253,135.23417 -23.86485,17.67767 18.56156,0 24.74874,-15.9099 6.18719,-15.9099 31.81981,-125.51146 26.51651,-135.23417 -5.30331,-9.72272 -7.07107,-76.89787 5.3033,-76.89787 12.37436,0 -39.77476,-12.37436 -42.42641,-18.56155 z"
     id="path833"
     inkscape:connector-curvature="0" />
  <path
     style="fill:#000000;stroke:none;stroke-width:1px;stroke-linecap:butt;stroke-linejoin:miter;stroke-opacity:1"
     d="m 446.36116,213.46564 c 0,0 70.71067,-0.88388 70.71067,-16.79379 0,-15.9099 67.17515,1.76777 60.10408,21.21321 -7.07107,19.44543 -43.31029,-2.65165 -43.31029,-2.65165 0,0 -129.04699,16.79378 -140.53747,42.4264 -11.49049,25.63262 -49.49748,40.65864 -49.49748,24.74874 0,-15.9099 1.76777,-29.16815 -10.6066,-30.05204 -12.37437,-0.88388 15.02602,-28.28427 37.12311,-15.9099 22.09708,12.37437 71.59456,-27.40039 76.01398,-22.98097 z"
     id="path839"
     inkscape:connector-curvature="0" />
  <path
     style="fill:#000000;stroke:none;stroke-width:1px;stroke-linecap:butt;stroke-linejoin:miter;stroke-opacity:1"
     d="m 411.00582,265.61476 c 0,0 23.86485,12.37437 25.63262,42.42641 1.76776,30.05204 19.44543,193.57048 -5.3033,188.26718 -24.74874,-5.3033 12.37437,68.05903 15.9099,58.33631 3.53553,-9.72272 13.25825,5.3033 10.6066,-63.63961 -2.65165,-68.94291 -6.18718,-129.04699 -6.18718,-129.04699 0,0 -6.18719,-77.78174 4.41941,-79.54951 10.60661,-1.76777 -31.8198,-25.63262 -45.07805,-16.79379 z"
     id="path841"
     inkscape:connector-curvature="0" />
</svg>
