<?xml version="1.0" encoding="UTF-8" standalone="no"?>
<!-- Created with Inkscape (http://www.inkscape.org/) -->

<svg
   xmlns:dc="http://purl.org/dc/elements/1.1/"
   xmlns:cc="http://creativecommons.org/ns#"
   xmlns:rdf="http://www.w3.org/1999/02/22-rdf-syntax-ns#"
   xmlns:svg="http://www.w3.org/2000/svg"
   xmlns="http://www.w3.org/2000/svg"
   xmlns:xlink="http://www.w3.org/1999/xlink"
   xmlns:sodipodi="http://sodipodi.sourceforge.net/DTD/sodipodi-0.dtd"
   xmlns:inkscape="http://www.inkscape.org/namespaces/inkscape"
   version="1.1"
   id="svg2"
   width="512"
   height="512"
   viewBox="0 0 512 512"
   sodipodi:docname="U+677E.svg"
   inkscape:version="0.92.4 (5da689c313, 2019-01-14)">
  <metadata
     id="metadata8">
    <rdf:RDF>
      <cc:Work
         rdf:about="">
        <dc:format>image/svg+xml</dc:format>
        <dc:type
           rdf:resource="http://purl.org/dc/dcmitype/StillImage" />
        <dc:title></dc:title>
      </cc:Work>
    </rdf:RDF>
  </metadata>
  <defs
     id="defs6" />
  <sodipodi:namedview
     pagecolor="#ffffff"
     bordercolor="#666666"
     borderopacity="1"
     objecttolerance="10"
     gridtolerance="10"
     guidetolerance="10"
     inkscape:pageopacity="0"
     inkscape:pageshadow="2"
     inkscape:window-width="1920"
     inkscape:window-height="1001"
     id="namedview4"
     showgrid="false"
     inkscape:zoom="1.3037281"
     inkscape:cx="266.20588"
     inkscape:cy="234.1167"
     inkscape:window-x="-9"
     inkscape:window-y="-9"
     inkscape:window-maximized="1"
     inkscape:current-layer="svg2" />
  <image
     width="512"
     height="512"
     preserveAspectRatio="none"
     xlink:href="file:///E:/portfolio/labs/lab03/1000png/U+677E.png"
     id="image10"
     x="0"
     y="0"
     sodipodi:absref="E:\portfolio\labs\lab03\1000png\U+677E.png" />
  <path
     style="fill:#000000;stroke:none;stroke-width:1px;stroke-linecap:butt;stroke-linejoin:miter;stroke-opacity:1"
     d="m 9.204373,186.77882 c 0,0 6.90328,26.07906 66.731704,7.67031 59.828423,-18.40875 120.423883,-41.41968 121.190913,-47.55593 0.76703,-6.13625 19.94281,11.50547 33.74937,9.20438 13.80656,-2.3011 13.03953,12.27249 -13.80656,18.40874 -26.84609,6.13625 -151.105127,42.95374 -173.349028,56.7603 C 21.47687,245.07318 -0.76703109,188.31288 9.204373,186.77882 Z"
     id="path817"
     inkscape:connector-curvature="0" />
  <path
     style="fill:#000000;stroke:none;stroke-width:1px;stroke-linecap:butt;stroke-linejoin:miter;stroke-opacity:1"
     d="m 154.94028,44.111038 c 0,0 23.01093,17.641715 37.58452,13.80656 14.57359,-3.835156 16.10766,23.777963 5.36922,30.681243 -10.73844,6.90328 -42.18671,200.195109 -32.98234,268.460879 9.20438,68.26577 6.13625,92.04373 -3.06812,94.34482 -9.20437,2.3011 -35.28343,-75.16904 -27.61312,-69.03279 7.67031,6.13625 15.34062,41.41968 13.03953,-12.2725 C 144.96888,316.40707 183.32043,102.4054 171.81496,83.996654 160.3095,65.587908 138.0656,60.985722 134.99747,37.207758 c -3.06812,-23.777963 -1.53406,13.80656 19.94281,6.90328 z"
     id="path819"
     inkscape:connector-curvature="0" />
  <path
     style="fill:#000000;stroke:none;stroke-width:1px;stroke-linecap:butt;stroke-linejoin:miter;stroke-opacity:1"
     d="m 183.32043,202.11944 c 0,0 -14.57359,69.0328 -71.33389,107.38435 -56.760302,38.35156 -85.140452,39.88562 -85.140452,39.88562 0,0 62.896549,-36.81749 108.918412,-102.78217 46.02187,-65.96467 26.84609,-20.70983 47.55593,-44.4878 z"
     id="path821"
     inkscape:connector-curvature="0" />
  <path
     style="fill:#000000;stroke:none;stroke-width:1px;stroke-linecap:butt;stroke-linejoin:miter;stroke-opacity:1"
     d="m 155.70731,261.18084 c 0,0 39.88562,44.4878 47.55593,34.51639 7.67031,-9.9714 15.34062,-26.84608 -47.55593,-34.51639 z"
     id="path823"
     inkscape:connector-curvature="0" />
  <path
     style="fill:#000000;stroke:none;stroke-width:1px;stroke-linecap:butt;stroke-linejoin:miter;stroke-opacity:1"
     d="m 235.47854,192.14804 c 0,0 32.98234,13.03953 32.21531,23.01093 -0.76703,9.9714 24.54499,12.2725 14.57359,22.2439 -9.9714,9.97141 -27.61312,16.87469 -36.05046,13.80656 -8.43734,-3.06812 -20.70984,-3.06812 -13.03953,-19.94281 7.67031,-16.87468 12.2725,-5.36921 2.30109,-39.11858 z"
     id="path825"
     inkscape:connector-curvature="0" />
  <path
     style="fill:#000000;stroke:none;stroke-width:1px;stroke-linecap:butt;stroke-linejoin:miter;stroke-opacity:1"
     d="m 342.09586,222.06225 c 0,0 13.03953,10.73843 -5.36921,33.74937 -18.40875,23.01093 -16.87469,30.68124 -36.05046,31.44827 -19.17578,0.76703 -16.10766,39.88562 2.30109,49.85702 18.40874,9.97141 102.78216,-46.78889 109.68544,-17.64171 6.90328,29.14718 67.49874,-14.57359 20.70984,-31.44828 -46.78889,-16.87468 -64.43061,-25.31202 -64.43061,-25.31202 l 23.77797,29.91421 c 0,0 -98.17998,32.98234 -63.66358,5.36922 34.51639,-27.61312 61.36248,-37.58453 13.03952,-75.93608 z"
     id="path827"
     inkscape:connector-curvature="0" />
  <path
     style="fill:#000000;stroke:none;stroke-width:1px;stroke-linecap:butt;stroke-linejoin:miter;stroke-opacity:1"
     d="m 409.5946,147.66023 c 0,0 23.01093,36.05047 51.39108,32.21531 28.38015,-3.83516 -2.30109,49.85702 -19.94281,34.5164 -17.64171,-15.34062 -31.44827,-66.73171 -31.44827,-66.73171 z"
     id="path831"
     inkscape:connector-curvature="0" />
</svg>
