<?xml version="1.0" encoding="UTF-8" standalone="no"?>
<!-- Created with Inkscape (http://www.inkscape.org/) -->

<svg
   xmlns:dc="http://purl.org/dc/elements/1.1/"
   xmlns:cc="http://creativecommons.org/ns#"
   xmlns:rdf="http://www.w3.org/1999/02/22-rdf-syntax-ns#"
   xmlns:svg="http://www.w3.org/2000/svg"
   xmlns="http://www.w3.org/2000/svg"
   xmlns:xlink="http://www.w3.org/1999/xlink"
   xmlns:sodipodi="http://sodipodi.sourceforge.net/DTD/sodipodi-0.dtd"
   xmlns:inkscape="http://www.inkscape.org/namespaces/inkscape"
   version="1.1"
   id="svg2"
   width="580"
   height="580"
   viewBox="0 0 580 580"
   sodipodi:docname="U+8584.svg"
   inkscape:version="0.92.4 (5da689c313, 2019-01-14)">
  <metadata
     id="metadata8">
    <rdf:RDF>
      <cc:Work
         rdf:about="">
        <dc:format>image/svg+xml</dc:format>
        <dc:type
           rdf:resource="http://purl.org/dc/dcmitype/StillImage" />
        <dc:title></dc:title>
      </cc:Work>
    </rdf:RDF>
  </metadata>
  <defs
     id="defs6" />
  <sodipodi:namedview
     pagecolor="#ffffff"
     bordercolor="#666666"
     borderopacity="1"
     objecttolerance="10"
     gridtolerance="10"
     guidetolerance="10"
     inkscape:pageopacity="0"
     inkscape:pageshadow="2"
     inkscape:window-width="1920"
     inkscape:window-height="1001"
     id="namedview4"
     showgrid="false"
     inkscape:zoom="1.1508772"
     inkscape:cx="293.24989"
     inkscape:cy="275.04563"
     inkscape:window-x="-9"
     inkscape:window-y="-9"
     inkscape:window-maximized="1"
     inkscape:current-layer="svg2" />
  <image
     width="580"
     height="580"
     preserveAspectRatio="none"
     xlink:href="file:///E:/portfolio/labs/lab03/1000png/U+8584.png"
     id="image10"
     x="0"
     y="0"
     sodipodi:absref="E:\portfolio\labs\lab03\1000png\U+8584.png" />
  <path
     style="fill:#000000;stroke:none;stroke-width:1px;stroke-linecap:butt;stroke-linejoin:miter;stroke-opacity:1"
     d="m 175.51829,116.00612 c 0,0 -12.16464,-32.149391 16.50914,-11.29573 28.67378,20.85365 24.32927,8.68902 37.3628,37.3628 13.03354,28.67378 4.34452,45.18292 -11.29573,39.96951 -15.64024,-5.21341 -22.59146,-10.42683 -39.10061,7.82012 -16.50914,18.24695 -25.19816,-16.50914 -35.62499,-25.19817 -10.42683,-8.68902 20.85365,-11.29573 20.85365,-6.08231 0,5.21341 39.96951,-2.60671 28.67378,-16.50915 -11.29573,-13.90244 -17.37804,-26.06707 -17.37804,-26.06707 z"
     id="path817"
     inkscape:connector-curvature="0" />
  <path
     style="fill:#000000;stroke:none;stroke-width:1px;stroke-linecap:butt;stroke-linejoin:miter;stroke-opacity:1"
     d="m 114.69512,211.58538 c 0,0 55.60975,22.59146 59.08536,52.13415 3.47561,29.54268 -19.11585,19.98475 -36.4939,-5.21342 -17.37805,-25.19817 -22.59146,-46.92073 -22.59146,-46.92073 z"
     id="path819"
     inkscape:connector-curvature="0" />
  <path
     style="fill:#000000;stroke:none;stroke-width:1px;stroke-linecap:butt;stroke-linejoin:miter;stroke-opacity:1"
     d="m 78.201216,283.70428 c 0,0 19.115853,21.72256 36.493904,21.72256 17.37804,0 33.88719,25.19817 21.72256,32.14939 -12.16464,6.95122 -46.05183,6.08232 -53.003049,-10.42683 -6.95122,-16.50914 -12.164634,-39.96951 -5.213415,-43.44512 z"
     id="path821"
     inkscape:connector-curvature="0" />
  <path
     style="fill:#000000;stroke:none;stroke-width:1px;stroke-linecap:butt;stroke-linejoin:miter;stroke-opacity:1"
     d="m 159.00914,374.07013 c 0,0 -39.10061,53.00305 -52.13414,59.95427 -13.033541,6.95122 3.4756,49.52743 15.64024,49.52743 12.16463,0 26.93597,28.67378 32.14939,-8.68902 5.21341,-37.3628 -3.47561,-62.56097 4.34451,-100.79268 z"
     id="path823"
     inkscape:connector-curvature="0" />
  <path
     style="fill:#000000;stroke:none;stroke-width:1px;stroke-linecap:butt;stroke-linejoin:miter;stroke-opacity:1"
     d="m 294.55791,25.640268 c 0,0 41.70732,0 42.57622,20.853658 0.8689,20.853657 20.85366,1.737804 4.34451,36.4939 -16.50914,34.756094 -40.83841,80.807924 -62.56097,91.234754 -21.72256,10.42683 -55.60975,24.32927 -26.93597,5.21341 28.67378,-19.11585 46.05182,-61.69207 50.39634,-85.152432 4.34451,-23.460365 -0.86891,-67.774388 -7.82013,-68.64329 z"
     id="path825"
     inkscape:connector-curvature="0" />
  <path
     style="fill:#000000;stroke:none;stroke-width:1px;stroke-linecap:butt;stroke-linejoin:miter;stroke-opacity:1"
     d="m 274.57316,110.7927 c 0,0 19.11585,29.54268 66.90548,0.86891 47.78964,-28.673784 79.93902,10.42682 72.1189,14.77134 -7.82012,4.34451 -12.16463,14.77134 -29.54268,14.77134 -17.37805,0 -75.59451,19.11585 -79.93902,11.29573 -4.34451,-7.82012 -32.14939,-14.77134 -29.54268,-41.70732 z"
     id="path827"
     inkscape:connector-curvature="0" />
  <path
     style="fill:#000000;stroke:none;stroke-width:1px;stroke-linecap:butt;stroke-linejoin:miter;stroke-opacity:1"
     d="m 257.19511,196.81404 c 0,0 -22.59146,-2.60671 -9.55793,9.55793 13.03354,12.16463 15.64025,14.77134 39.10061,6.08231 23.46037,-8.68902 76.46341,-17.37804 59.08537,-25.19817 -17.37805,-7.82012 -78.20122,12.16464 -88.62805,9.55793 z"
     id="path829"
     inkscape:connector-curvature="0" />
  <path
     style="fill:#000000;stroke:none;stroke-width:1px;stroke-linecap:butt;stroke-linejoin:miter;stroke-opacity:1"
     d="m 285.86889,167.27136 c 0,0 9.55793,29.54268 4.34451,75.59451 -5.21341,46.05183 12.16464,141.63109 16.50915,65.16768 4.34451,-76.46341 -3.47561,-112.08841 7.82012,-133.81097 11.29573,-21.72256 -32.14939,-15.64024 -28.67378,-6.95122 z"
     id="path831"
     inkscape:connector-curvature="0" />
  <path
     style="fill:#000000;stroke:none;stroke-width:1px;stroke-linecap:butt;stroke-linejoin:miter;stroke-opacity:1"
     d="m 251.9817,247.21038 c 0,0 115.56402,-20.85366 117.30182,-33.01829 1.73781,-12.16463 0,-19.11585 17.37805,0.8689 17.37805,19.98476 36.4939,16.50915 13.03353,38.23171 -23.46036,21.72256 -19.98475,23.46036 -22.59146,36.4939 -2.60671,13.03353 -12.16463,59.08536 -22.59146,53.00304 -10.42683,-6.08231 -17.37805,-13.03353 -33.01829,-10.42682 -15.64024,2.6067 -55.60976,10.42682 -56.47866,19.98475 -0.8689,9.55793 -14.77134,12.16463 -19.98475,5.21342 -5.21342,-6.95122 -23.46037,5.21341 -33.01829,-7.82013 -9.55793,-13.03353 -11.29574,-15.64024 1.7378,-11.29573 13.03354,4.34451 28.67378,9.55793 23.46037,-1.7378 -5.21342,-11.29573 -33.0183,-41.70732 -38.23171,-54.74085 -5.21341,-13.03354 -8.68902,-17.37805 -19.11585,-19.98476 -10.42683,-2.60671 26.06707,-21.72256 39.96951,1.73781 13.90244,23.46036 1.7378,13.03353 24.32926,36.4939 22.59147,23.46036 15.64025,39.1006 15.64025,39.1006 0,0 10.42683,-13.90243 26.93597,-13.90243 16.50915,0 46.05183,-14.77134 55.60976,-5.21342 9.55792,9.55793 -3.47561,-3.47561 3.47561,-31.28048 6.95121,-27.80488 24.32926,-49.52744 -7.82013,-41.70732 -32.14938,7.82012 -73.8567,16.50915 -86.02133,13.03354 -12.16464,-3.47561 -38.23171,-15.64025 0,-13.03354 z"
     id="path833"
     inkscape:connector-curvature="0" />
  <path
     style="fill:#000000;stroke:none;stroke-width:1px;stroke-linecap:butt;stroke-linejoin:miter;stroke-opacity:1"
     d="m 236.34145,301.95123 c 0,0 30.41159,-19.11585 49.52744,-18.24695 19.11585,0.8689 28.67378,-15.64024 45.18292,-13.90244 16.50915,1.73781 47.78964,13.90244 26.93598,19.11586 -20.85366,5.21341 -30.41158,-3.47561 -50.39634,5.21341 -19.98476,8.68902 -59.95427,13.90244 -64.29878,13.90244 -4.34451,0 -6.95122,-6.08232 -6.95122,-6.08232 z"
     id="path835"
     inkscape:connector-curvature="0" />
  <path
     style="fill:#000000;stroke:none;stroke-width:1px;stroke-linecap:butt;stroke-linejoin:miter;stroke-opacity:1"
     d="m 301.50913,351.47867 c 0,0 29.54268,0 34.7561,37.3628 5.21341,37.3628 8.68902,94.71036 -1.73781,113.82622 -10.42682,19.11585 0,23.46036 -26.06707,14.77134 -26.06707,-8.68903 -20.85366,-12.16464 -6.08231,10.42683 14.77134,22.59146 1.7378,12.16463 14.77134,22.59146 13.03353,10.42683 18.24695,32.14939 28.67378,15.64024 10.42682,-16.50914 9.55792,-32.14939 6.95121,-50.39634 -2.6067,-18.24695 13.90244,-28.67378 3.47561,-91.23475 -10.42682,-62.56097 11.29574,-44.31402 -18.24695,-67.77439 -29.54268,-23.46036 -36.4939,-5.21341 -36.4939,-5.21341 z"
     id="path837"
     inkscape:connector-curvature="0" />
  <path
     style="fill:#000000;stroke:none;stroke-width:1px;stroke-linecap:butt;stroke-linejoin:miter;stroke-opacity:1"
     d="m 147.71341,434.8933 c 0,0 52.13414,-33.88719 121.64633,-45.18293 69.5122,-11.29573 99.92378,-31.28048 151.18902,-25.19817 51.26524,6.08232 39.10061,-5.21341 75.59451,5.21342 36.4939,10.42683 41.70732,-3.47561 32.14939,-14.77134 -9.55793,-11.29573 -67.77439,-36.4939 -78.20122,-23.46037 -10.42682,13.03354 -114.69511,31.28049 -119.90853,31.28049 -5.21341,0 -182.4695,27.80488 -180.7317,39.10061 1.73781,11.29573 -6.08231,32.14939 -6.08231,32.14939 z"
     id="path839"
     inkscape:connector-curvature="0" />
  <path
     style="fill:#000000;stroke:none;stroke-width:1px;stroke-linecap:butt;stroke-linejoin:miter;stroke-opacity:1"
     d="m 246.76828,416.64635 c 0,0 -6.95122,19.11585 12.16464,41.70731 19.11585,22.59147 29.54268,-13.03353 19.11585,-21.72256 -10.42683,-8.68902 -31.28049,-19.98475 -31.28049,-19.98475 z"
     id="path841"
     inkscape:connector-curvature="0" />
</svg>
