<?xml version="1.0" encoding="UTF-8" standalone="no"?>
<!-- Created with Inkscape (http://www.inkscape.org/) -->

<svg
   xmlns:dc="http://purl.org/dc/elements/1.1/"
   xmlns:cc="http://creativecommons.org/ns#"
   xmlns:rdf="http://www.w3.org/1999/02/22-rdf-syntax-ns#"
   xmlns:svg="http://www.w3.org/2000/svg"
   xmlns="http://www.w3.org/2000/svg"
   xmlns:xlink="http://www.w3.org/1999/xlink"
   xmlns:sodipodi="http://sodipodi.sourceforge.net/DTD/sodipodi-0.dtd"
   xmlns:inkscape="http://www.inkscape.org/namespaces/inkscape"
   version="1.1"
   id="svg2"
   width="590"
   height="590"
   viewBox="0 0 590 590"
   sodipodi:docname="U+99A8.svg"
   inkscape:version="0.92.4 (5da689c313, 2019-01-14)">
  <metadata
     id="metadata8">
    <rdf:RDF>
      <cc:Work
         rdf:about="">
        <dc:format>image/svg+xml</dc:format>
        <dc:type
           rdf:resource="http://purl.org/dc/dcmitype/StillImage" />
        <dc:title></dc:title>
      </cc:Work>
    </rdf:RDF>
  </metadata>
  <defs
     id="defs6" />
  <sodipodi:namedview
     pagecolor="#ffffff"
     bordercolor="#666666"
     borderopacity="1"
     objecttolerance="10"
     gridtolerance="10"
     guidetolerance="10"
     inkscape:pageopacity="0"
     inkscape:pageshadow="2"
     inkscape:window-width="1920"
     inkscape:window-height="1001"
     id="namedview4"
     showgrid="false"
     inkscape:zoom="1.1313708"
     inkscape:cx="350.32855"
     inkscape:cy="265.07359"
     inkscape:window-x="-9"
     inkscape:window-y="-9"
     inkscape:window-maximized="1"
     inkscape:current-layer="svg2" />
  <image
     width="590"
     height="590"
     preserveAspectRatio="none"
     xlink:href="file:///E:/portfolio/labs/lab03/1000png/U+99A8.png"
     id="image10"
     x="0"
     y="0"
     sodipodi:absref="E:\portfolio\labs\lab03\1000png\U+99A8.png" />
  <path
     style="fill:#000000;stroke:none;stroke-width:1px;stroke-linecap:butt;stroke-linejoin:miter;stroke-opacity:1"
     d="m 280.19106,49.947195 c 0,0 -100.76271,37.123106 -118.44038,28.284272 -17.67767,-8.838835 14.14213,38.890873 20.32932,36.239223 6.18718,-2.65165 45.96194,-35.35534 76.89786,-38.00699 30.93592,-2.651651 45.07806,-35.355339 21.2132,-26.516505 z"
     id="path817"
     inkscape:connector-curvature="0" />
  <path
     style="fill:#000000;stroke:none;stroke-width:1px;stroke-linecap:butt;stroke-linejoin:miter;stroke-opacity:1"
     d="m 171.47339,25.198458 c 0,0 38.89088,12.374369 38.89088,58.33631 0,45.961942 20.32932,33.587572 20.32932,33.587572 l 11.49048,-51.265242 c 0,0 11.49049,-13.258252 -15.02602,-20.32932 -26.5165,-7.071068 -14.14213,-36.2392225 -55.68466,-20.32932 z"
     id="path819"
     inkscape:connector-curvature="0" />
  <path
     style="fill:#000000;stroke:none;stroke-width:1px;stroke-linecap:butt;stroke-linejoin:miter;stroke-opacity:1"
     d="m 147.60854,138.33554 110.48544,-36.23922 c 0,0 34.47145,1.76777 30.05203,7.95495 -4.41941,6.18719 -39.77475,7.07107 -67.17514,19.44544 -27.40039,12.37437 -67.17514,27.40039 -66.29126,32.70369 0.88388,5.3033 -24.74874,0.88388 -26.51651,-15.02602 -1.76776,-15.9099 -1.76776,-11.49049 19.44544,-8.83884 z"
     id="path821"
     inkscape:connector-curvature="0" />
  <path
     style="fill:#000000;stroke:none;stroke-width:1px;stroke-linecap:butt;stroke-linejoin:miter;stroke-opacity:1"
     d="m 157.33126,189.60078 c 0,0 -20.32932,-14.14213 -7.95495,12.37437 12.37437,26.51651 30.05204,-4.41941 7.95495,56.56855 -22.09709,60.98796 -72.478446,141.42135 -79.549514,157.33125 -7.071068,15.90991 -44.194174,60.10408 -48.613591,48.6136 -4.419418,-11.49049 -7.071068,-22.09709 -7.071068,-22.09709 0,0 -11.490485,48.61359 3.535534,48.61359 15.026019,0 52.149125,-40.65864 57.452426,-53.91689 5.303301,-13.25825 37.123103,-65.40738 42.426403,-67.17515 5.3033,-1.76776 52.14913,-148.49242 52.14913,-148.49242 l -14.14214,-17.67767 -4.41941,-10.6066 z"
     id="path823"
     inkscape:connector-curvature="0" />
  <path
     style="fill:#000000;stroke:none;stroke-width:1px;stroke-linecap:butt;stroke-linejoin:miter;stroke-opacity:1"
     d="m 157.33126,189.60078 88.38835,-32.70368 c 0,0 25.63262,-10.60661 29.16815,-22.09709 3.53554,-11.49049 47.72971,-6.18719 38.89087,6.18718 -8.83883,12.37437 -3.53553,17.67767 -25.63262,27.40039 -22.09708,9.72272 -36.23922,0.88388 -36.23922,0.88388 l -88.38835,34.47146 z"
     id="path825"
     inkscape:connector-curvature="0" />
  <path
     style="fill:#000000;stroke:none;stroke-width:1px;stroke-linecap:butt;stroke-linejoin:miter;stroke-opacity:1"
     d="m 167.05398,225.84001 c 0,0 57.45242,-6.18719 45.07805,-25.63262 -12.37436,-19.44544 7.07107,-21.21321 22.98097,-6.18719 15.90991,15.02602 31.81981,9.72272 31.81981,9.72272 0,0 12.37437,5.3033 -7.07107,15.9099 -19.44543,10.6066 -32.70369,-4.41941 -47.72971,11.49049 -15.02601,15.9099 -38.89087,21.2132 -43.31029,10.6066 -4.41941,-10.6066 -1.76776,-15.9099 -1.76776,-15.9099 z"
     id="path827"
     inkscape:connector-curvature="0" />
  <path
     style="fill:#000000;stroke:none;stroke-width:1px;stroke-linecap:butt;stroke-linejoin:miter;stroke-opacity:1"
     d="m 263.39728,163.96816 -13.25826,45.96194 16.79379,-6.18718 c 0,0 27.40039,-52.14912 -3.53553,-39.77476 z"
     id="path829"
     inkscape:connector-curvature="0" />
  <path
     style="fill:#000000;stroke:none;stroke-width:1px;stroke-linecap:butt;stroke-linejoin:miter;stroke-opacity:1"
     d="m 315.5464,16.359623 c 0,0 14.14214,16.793786 3.53554,48.613592 -10.60661,31.819805 38.89087,-9.722719 31.8198,-11.490486 -7.07107,-1.767767 21.2132,6.187185 21.2132,6.187185 0,0 -2.65165,21.213203 -17.67767,15.026019 -15.02601,-6.187185 -7.95495,22.097087 -7.95495,22.097087 0,0 -14.14213,40.65864 -30.05204,43.31029 -15.9099,2.65165 -42.4264,38.89087 9.72272,13.25825 52.14913,-25.63262 137.88583,-35.35534 137.88583,-40.65864 0,-5.3033 12.37436,-19.445434 -14.14214,-15.026017 -26.5165,4.419417 -109.60155,38.890877 -89.27223,18.561557 20.32932,-20.329324 20.32932,-35.355343 14.14213,-35.355343 -6.18718,0 18.56156,-22.097087 18.56156,-22.097087 0,0 30.93592,-2.65165 22.09708,-15.909902 C 406.5864,29.617875 389.79261,22.546808 380.0699,26.082342 370.34718,29.617875 364.15999,44.643895 352.66951,41.992244 341.17902,39.340594 315.5464,16.359623 315.5464,16.359623 Z"
     id="path831"
     inkscape:connector-curvature="0" />
  <path
     style="fill:#000000;stroke:none;stroke-width:1px;stroke-linecap:butt;stroke-linejoin:miter;stroke-opacity:1"
     d="m 388.02485,157.78098 c 0,0 29.16815,-16.79379 15.9099,-30.05204 -13.25825,-13.25825 -27.40039,11.49049 -27.40039,11.49049 0,0 -0.88388,15.02602 -27.40039,26.5165 -26.5165,11.49049 -77.78174,45.96194 -77.78174,45.96194 0,0 79.54951,-32.70369 89.27223,-32.70369 9.72272,0 -22.98097,-4.41941 27.40039,-21.2132 z"
     id="path833"
     inkscape:connector-curvature="0" />
  <path
     style="fill:#000000;stroke:none;stroke-width:1px;stroke-linecap:butt;stroke-linejoin:miter;stroke-opacity:1"
     d="m 306.70757,201.09127 c 0,0 -4.41942,15.9099 -45.07806,37.12311 -40.65864,21.2132 -47.72971,31.8198 10.6066,10.6066 58.33631,-21.21321 81.31728,0.88388 77.78175,-15.02602 -3.53554,-15.9099 -14.14214,-16.79379 -14.14214,-16.79379 0,0 -12.37437,-31.8198 -29.16815,-15.9099 z"
     id="path835"
     inkscape:connector-curvature="0" />
  <path
     style="fill:#000000;stroke:none;stroke-width:1px;stroke-linecap:butt;stroke-linejoin:miter;stroke-opacity:1"
     d="m 253.67456,274.4536 c 0,0 43.31029,-4.41942 50.38136,16.79378 7.07106,21.21321 -27.40039,88.38835 -13.25826,83.96894 14.14214,-4.41942 33.58758,-22.98098 51.26525,-4.41942 17.67767,18.56155 29.16815,10.6066 24.74873,36.23922 -4.41941,25.63262 -1.76776,112.2532 4.41942,112.2532 6.18718,0 -10.6066,37.12311 -25.63262,4.41942 -15.02602,-32.70369 8.83883,9.72272 0,-71.59456 -8.83884,-81.31728 9.72272,-76.89786 -25.63262,-71.59456 -35.35534,5.3033 -76.89786,38.00699 -77.78175,32.70368 -0.88388,-5.3033 -5.3033,-18.56155 -10.6066,-17.67766 -5.3033,0.88388 1.76777,-13.25826 13.25825,-7.07107 11.49049,6.18718 40.65864,-3.53554 31.81981,-23.86486 -8.83884,-20.32932 0.88388,-58.33631 0.88388,-58.33631 0,0 0.88389,-31.8198 -23.86485,-31.8198 z"
     id="path837"
     inkscape:connector-curvature="0" />
  <path
     style="fill:#000000;stroke:none;stroke-width:1px;stroke-linecap:butt;stroke-linejoin:miter;stroke-opacity:1"
     d="m 270.46834,431.78486 c 0,0 33.58758,-16.79379 36.23923,-9.72272 2.65165,7.07107 25.63262,6.18718 -4.41942,23.86485 -30.05204,17.67767 -46.84583,-17.67767 -46.84583,-17.67767 z"
     id="path839"
     inkscape:connector-curvature="0" />
  <path
     style="fill:#000000;stroke:none;stroke-width:1px;stroke-linecap:butt;stroke-linejoin:miter;stroke-opacity:1"
     d="m 206.82873,393.77787 c 0,0 38.00699,21.2132 37.12311,38.00699 -0.88388,16.79378 -4.41942,66.29126 7.95495,59.22019 12.37437,-7.07107 91.04,-21.2132 92.80777,-6.18718 1.76776,15.02602 0,5.3033 -17.67767,12.37436 -17.67767,7.07107 -67.17515,13.25826 -85.7367,22.98098 -18.56155,9.72271 -18.56155,-53.03301 -18.56155,-53.03301 0,0 -2.65165,-73.36233 -15.90991,-73.36233 z"
     id="path841"
     inkscape:connector-curvature="0" />
  <path
     style="fill:#000000;stroke:none;stroke-width:1px;stroke-linecap:butt;stroke-linejoin:miter;stroke-opacity:1"
     d="m 214.78368,327.48661 c 0,0 32.70369,22.98097 16.79379,32.70369 -15.9099,9.72271 -22.09709,11.49048 -36.23922,25.63262 -14.14214,14.14213 -49.49748,30.93592 -18.56155,0.88388 30.93592,-30.05204 38.89087,-27.40039 38.00698,-59.22019 z"
     id="path843"
     inkscape:connector-curvature="0" />
  <path
     style="fill:#000000;stroke:none;stroke-width:1px;stroke-linecap:butt;stroke-linejoin:miter;stroke-opacity:1"
     d="m 148.49242,319.53166 c 0,0 128.16311,-25.63262 129.04699,-38.00699 0.88389,-12.37437 13.25825,4.41941 13.25825,4.41941 0,0 104.29825,-10.6066 108.71767,-22.09708 4.41942,-11.49049 26.51651,17.67767 38.89087,8.83883 12.37437,-8.83883 21.21321,28.28427 -2.65165,25.63262 -23.86485,-2.65165 -16.79378,-22.98097 -68.05902,-16.79378 -51.26525,6.18718 -183.84777,34.47145 -193.57048,55.68466 -9.72272,21.2132 -7.07107,-18.56156 -25.63263,-17.67767 z"
     id="path845"
     inkscape:connector-curvature="0" />
  <path
     style="fill:#000000;stroke:none;stroke-width:1px;stroke-linecap:butt;stroke-linejoin:miter;stroke-opacity:1"
     d="m 363.27611,179.87807 c 0,0 165.28621,71.59456 190.91883,100.76271 25.63262,29.16816 49.49747,10.6066 14.14214,-14.14213 -35.35534,-24.74874 -91.04,-61.87185 -205.06097,-86.62058 z"
     id="path847"
     inkscape:connector-curvature="0" />
  <path
     style="fill:#000000;stroke:none;stroke-width:1px;stroke-linecap:butt;stroke-linejoin:miter;stroke-opacity:1"
     d="m 323.50135,327.48661 c 0,0 65.40738,40.65864 83.08505,57.45242 17.67767,16.79379 39.77476,-11.49048 -6.18718,-36.23922 -45.96195,-24.74874 -40.65864,-10.6066 -76.89787,-21.2132 z"
     id="path849"
     inkscape:connector-curvature="0" />
</svg>
