<?xml version="1.0" encoding="UTF-8" standalone="no"?>
<!-- Created with Inkscape (http://www.inkscape.org/) -->

<svg
   xmlns:dc="http://purl.org/dc/elements/1.1/"
   xmlns:cc="http://creativecommons.org/ns#"
   xmlns:rdf="http://www.w3.org/1999/02/22-rdf-syntax-ns#"
   xmlns:svg="http://www.w3.org/2000/svg"
   xmlns="http://www.w3.org/2000/svg"
   xmlns:sodipodi="http://sodipodi.sourceforge.net/DTD/sodipodi-0.dtd"
   xmlns:inkscape="http://www.inkscape.org/namespaces/inkscape"
   width="600"
   height="600"
   viewBox="0 0 600 600"
   version="1.1"
   id="svg8"
   inkscape:version="0.92.4 (5da689c313, 2019-01-14)"
   sodipodi:docname="命.svg">
  <defs
     id="defs2" />
  <sodipodi:namedview
     id="base"
     pagecolor="#ffffff"
     bordercolor="#666666"
     borderopacity="1.0"
     inkscape:pageopacity="0.0"
     inkscape:pageshadow="2"
     inkscape:zoom="0.98994949"
     inkscape:cx="254.4494"
     inkscape:cy="276.41497"
     inkscape:document-units="px"
     inkscape:current-layer="layer1"
     showgrid="false"
     units="px"
     inkscape:window-width="1920"
     inkscape:window-height="1017"
     inkscape:window-x="-8"
     inkscape:window-y="-8"
     inkscape:window-maximized="1" />
  <metadata
     id="metadata5">
    <rdf:RDF>
      <cc:Work
         rdf:about="">
        <dc:format>image/svg+xml</dc:format>
        <dc:type
           rdf:resource="http://purl.org/dc/dcmitype/StillImage" />
        <dc:title></dc:title>
      </cc:Work>
    </rdf:RDF>
  </metadata>
  <g
     inkscape:label="圖層 1"
     inkscape:groupmode="layer"
     id="layer1"
     transform="translate(0,-138.24999)">
    <path
       style="fill:#000000;stroke:none;stroke-width:1px;stroke-linecap:butt;stroke-linejoin:miter;stroke-opacity:1"
       d="M 236.07143,186.46427 C 236.07143,186.46427 198.21429,161.82142 242.85714,162.17856 287.5,162.5357 186.78571,290.0357 119.28571,367.17856 51.785714,444.32142 17.142857,436.10713 17.142857,436.10713 17.142857,436.10713 141.78571,332.89285 185,270.0357 228.21429,207.17856 236.78571,200.74999 238.21429,191.10713 239.64286,181.46427 234.64286,186.10713 234.64286,186.10713 Z"
       id="path3728"
       inkscape:connector-curvature="0" />
    <path
       style="fill:#000000;stroke:none;stroke-width:1px;stroke-linecap:butt;stroke-linejoin:miter;stroke-opacity:1"
       d="M 272.81689,181.78552 C 272.81689,181.78552 261.78571,191.46427 285,195.39285 308.21429,199.32142 315.35714,189.67856 357.85714,249.67856 375.22816,274.20236 404.59885,296.95958 431.64988,311.53237 444.79437,318.6135 455.05055,325.27264 463.33497,332.94404 470.6128,339.68334 476.13835,347.89554 483.92307,348.38294 493.10531,348.95784 495.93008,341.04148 501.78572,335.0357 509.634,326.98618 521.85545,326.09552 532.46076,323.16439 559.49851,315.6916 582.0921,314.65318 582.0921,314.65318 582.0921,314.65318 403.92857,280.39285 343.92857,216.82142 343.92857,216.82142 321.88499,173.32881 272.81689,181.78552 Z"
       id="path3732"
       inkscape:connector-curvature="0"
       sodipodi:nodetypes="csssscsscc" />
    <path
       style="fill:#000000;stroke:none;stroke-width:1px;stroke-linecap:butt;stroke-linejoin:miter;stroke-opacity:1"
       d="M 210,287.17856 C 210,287.17856 241.42857,317.5357 251.42857,316.10713 261.42857,314.67856 292.5,307.5357 292.5,307.5357 292.5,307.5357 291.78571,277.5357 263.57143,277.5357 235.35714,277.5357 210,287.17856 210,287.17856 Z"
       id="path3734"
       inkscape:connector-curvature="0" />
    <path
       style="fill:#000000;stroke:none;stroke-width:1px;stroke-linecap:butt;stroke-linejoin:miter;stroke-opacity:1"
       d="M 175.71429,363.24999 C 175.71429,363.24999 186.78571,393.24999 198.21429,393.60713 209.64286,393.96428 222.14286,382.17856 222.14286,382.17856 L 213.57143,412.89285 180.35714,427.5357 C 180.35714,427.5357 178.57143,418.96427 179.64286,413.24999 180.71429,407.5357 185,398.60713 166.78571,390.0357 148.57142,381.46428 130,378.60713 135.71429,387.5357 141.42857,396.46428 167.07618,427.00039 163.21429,455.74999 161.81989,466.13049 175.3755,458.18594 194.47757,452.06281 206.13398,448.32636 218.15255,440.35109 230.07717,436.33635 243.65719,431.76429 255.97692,435.80511 260.71428,431.82142 260.71428,431.82142 268.21429,413.60713 251.07143,412.5357 233.92857,411.46428 260,363.96428 260,363.96428 260,363.96428 258.92857,346.10713 238.57143,333.24999 218.21429,320.39285 214.64286,345.74999 214.64286,345.74999 214.64286,345.74999 196.42857,368.60713 187.5,361.82142 178.57143,355.0357 175.71429,363.24999 175.71429,363.24999 Z"
       id="path3736"
       inkscape:connector-curvature="0"
       sodipodi:nodetypes="cscccsscsssc" />
    <path
       style="fill:none;stroke:#000000;stroke-width:1px;stroke-linecap:butt;stroke-linejoin:miter;stroke-opacity:1"
       d="M 259.28571,413.24999 Z"
       id="path3738"
       inkscape:connector-curvature="0" />
    <path
       style="fill:#000000;stroke:none;stroke-width:1px;stroke-linecap:butt;stroke-linejoin:miter;stroke-opacity:1"
       d="M 290.92393,374.59507 360.62446,336.71435 397.49503,336.20928 C 397.49503,336.20928 372.74629,301.86408 347.99755,306.91485 342.94318,307.94636 350.16356,310.91262 344.02517,315.29417 332.16975,323.75651 306.3364,336.11916 297.33089,340.35229 288.16784,344.65947 285.89004,330.22778 280.82241,336.71435 268.19551,352.87679 268.70058,354.39202 274.76149,359.94786 280.82241,365.5037 290.92393,374.59507 290.92393,374.59507 Z"
       id="path4549"
       inkscape:connector-curvature="0"
       sodipodi:nodetypes="cccsssssc" />
    <path
       style="fill:#000000;stroke:none;stroke-width:1px;stroke-linecap:butt;stroke-linejoin:miter;stroke-opacity:1"
       d="M 356.58385,308.43008 371.23106,345.80573 358.60415,392.27274 313.65237,404.89965 C 313.65237,404.89965 358.09908,423.58747 360.11938,434.69915 362.13969,445.81083 385.87827,427.62808 389.91888,390.75751 393.95949,353.88695 397.49503,336.20928 397.49503,336.20928 397.49503,336.20928 371.73614,300.85394 356.58385,308.43008 Z"
       id="path4551"
       inkscape:connector-curvature="0" />
    <path
       style="fill:#000000;stroke:none;stroke-width:1px;stroke-linecap:butt;stroke-linejoin:miter;stroke-opacity:1"
       d="M 290.92393,374.59507 C 290.92393,374.59507 296.68732,406.61198 300.52787,448.4283 303.18221,477.32902 303.59898,511.43823 305.9589,540.73393 309.12992,580.09843 313.01352,611.89038 309.61175,619.05199 300.01531,639.25505 295.46962,623.59768 295.46962,623.59768 L 303.20632,666.22821 314.15744,701.37942 C 314.15744,701.37942 334.36049,726.12816 330.82496,645.82103 327.28942,565.5139 311.63206,349.84634 311.63206,349.84634 Z"
       id="path4553"
       inkscape:connector-curvature="0"
       sodipodi:nodetypes="cssscccscc" />
  </g>
</svg>
